<svg width="526" height="311" viewBox="0 0 526 311" fill="none" xmlns="http://www.w3.org/2000/svg">
<path d="M129.011 72.9385H14.8057V136.797H129.011V72.9385Z" fill="#FAFAFA"/>
<path d="M129.012 136.797C129.012 136.797 129.012 136.402 129.012 135.649C129.012 134.896 129.012 133.77 129.012 132.315C129.012 129.391 129.012 125.077 128.976 119.542C128.976 108.487 128.932 92.5407 128.903 72.9386L129.049 73.0849L14.8506 73.1287L15.0407 72.9386C15.0407 95.5238 15.0407 117.122 15.0407 136.797L14.8653 136.622L96.9952 136.709L120.589 136.753H126.885H128.508H129.071H128.53H126.928H120.67L97.1122 136.804L14.7775 136.98H14.5947V136.797C14.5947 117.122 14.5947 95.5238 14.5947 72.9386V72.7485H14.7994L128.998 72.7924H129.144V72.9386C129.107 92.5846 129.085 108.56 129.063 119.637C129.063 125.15 129.063 129.449 129.027 132.366C129.027 133.829 129.027 134.925 129.027 135.679C129.027 136.432 129.012 136.797 129.012 136.797Z" fill="#E0E0E0"/>
<path d="M44.9001 88.1609H28.7563V104.305H44.9001V88.1609Z" fill="#E0E0E0"/>
<path d="M67.0845 90.4057C67.0845 90.508 63.3117 90.5958 58.6689 90.5958C54.0261 90.5958 50.2461 90.508 50.2461 90.4057C50.2461 90.3033 54.0188 90.2156 58.6689 90.2156C63.319 90.2156 67.0845 90.3252 67.0845 90.4057Z" fill="#E0E0E0"/>
<path d="M120.846 96.255C120.846 96.3574 105.046 96.4451 85.5533 96.4451C66.0608 96.4451 50.2461 96.3574 50.2461 96.255C50.2461 96.1527 66.0535 96.0649 85.5533 96.0649C105.053 96.0649 120.846 96.1307 120.846 96.255Z" fill="#E0E0E0"/>
<path d="M97.0975 102.748C97.0975 102.85 86.7078 102.938 73.8981 102.938C61.0884 102.938 50.7061 102.85 50.7061 102.748C50.7061 102.645 61.0884 102.558 73.8981 102.558C86.7078 102.558 97.0975 102.638 97.0975 102.748Z" fill="#E0E0E0"/>
<path d="M112.101 128.338H34.0876C32.1032 128.336 30.2007 127.546 28.7982 126.142C27.3957 124.738 26.6079 122.835 26.6079 120.851C26.6079 118.867 27.3959 116.965 28.7986 115.562C30.2014 114.159 32.1038 113.371 34.0876 113.371H112.101C113.084 113.37 114.057 113.563 114.966 113.938C115.874 114.314 116.699 114.865 117.395 115.559C118.09 116.254 118.642 117.079 119.018 117.987C119.394 118.895 119.588 119.868 119.588 120.851C119.588 121.834 119.394 122.808 119.018 123.716C118.642 124.624 118.09 125.45 117.395 126.145C116.7 126.84 115.875 127.392 114.966 127.768C114.058 128.144 113.084 128.338 112.101 128.338Z" fill="#E0E0E0"/>
<path d="M58.7565 121.904H56.8409L56.4753 122.788H55.4956L57.3381 118.665H58.2813L60.1092 122.788H59.1221L58.7565 121.904ZM58.4568 121.173L57.7987 119.593L57.1846 121.18L58.4568 121.173Z" fill="white"/>
<path d="M64.1305 120.156C64.1305 121.078 63.3993 121.619 62.3392 121.619H61.5057V122.759H60.5552V118.635H62.3392C63.4359 118.665 64.1305 119.235 64.1305 120.156ZM63.1654 120.156C63.1654 119.703 62.8656 119.425 62.2807 119.425H61.5057V120.887H62.3026C62.8656 120.873 63.1654 120.61 63.1654 120.156Z" fill="white"/>
<path d="M68.3785 120.156C68.3785 121.078 67.6913 121.619 66.5945 121.619H65.761V122.759H64.8032V118.635H66.5945C67.6913 118.665 68.3785 119.235 68.3785 120.156ZM67.4134 120.156C67.4134 119.703 67.121 119.425 66.536 119.425H65.761V120.887H66.536C67.121 120.873 67.4207 120.61 67.4207 120.156H67.4134Z" fill="white"/>
<path d="M69.0581 118.665H70.0159V122.006H72.0851V122.788H69.0581V118.665Z" fill="white"/>
<path d="M74.1757 121.326V122.788H73.2179V121.326L71.624 118.679H72.633L73.737 120.507L74.8411 118.679H75.7769L74.1757 121.326Z" fill="white"/>
<path d="M81.6267 118.665V122.788H80.8444L78.7899 120.281V122.788H77.8467V118.665H78.6363L80.6835 121.165V118.665H81.6267Z" fill="white"/>
<path d="M82.3431 120.727C82.3153 120.273 82.4244 119.822 82.6562 119.431C82.8881 119.04 83.232 118.728 83.6434 118.535C84.0548 118.343 84.5146 118.278 84.9632 118.349C85.4119 118.421 85.8286 118.626 86.1593 118.938C86.4901 119.249 86.7196 119.653 86.8181 120.096C86.9166 120.54 86.8795 121.003 86.7117 121.425C86.5438 121.847 86.253 122.209 85.8769 122.464C85.5007 122.719 85.0567 122.855 84.6024 122.854C84.3123 122.871 84.0219 122.829 83.7489 122.729C83.4758 122.63 83.2259 122.476 83.0144 122.277C82.8029 122.078 82.6343 121.838 82.5188 121.571C82.4034 121.304 82.3436 121.017 82.3431 120.727ZM85.8892 120.727C85.8834 120.473 85.8031 120.227 85.6583 120.02C85.5134 119.812 85.3105 119.652 85.0749 119.559C84.8393 119.466 84.5815 119.444 84.3339 119.497C84.0862 119.55 83.8597 119.675 83.6826 119.856C83.5056 120.037 83.3859 120.267 83.3386 120.515C83.2912 120.764 83.3184 121.021 83.4166 121.255C83.5148 121.488 83.6797 121.687 83.8906 121.828C84.1015 121.968 84.3491 122.043 84.6024 122.043C84.7753 122.048 84.9474 122.017 85.1079 121.953C85.2684 121.888 85.4137 121.791 85.5346 121.667C85.6556 121.543 85.7496 121.396 85.8106 121.234C85.8716 121.072 85.8984 120.899 85.8892 120.727Z" fill="white"/>
<path d="M93.676 118.665L92.3234 122.788H91.2998L90.3932 119.995L89.4573 122.788H88.441L87.0811 118.665H88.0754L89.004 121.589L89.9764 118.665H90.8611L91.8043 121.589L92.7621 118.665H93.676Z" fill="white"/>
<path d="M131.425 208.925H32.7129V264.119H131.425V208.925Z" fill="#FAFAFA"/>
<path d="M131.425 264.127C131.425 264.127 131.425 263.783 131.425 263.125C131.425 262.467 131.425 261.502 131.425 260.244C131.425 257.707 131.425 253.986 131.381 249.204C131.381 239.648 131.337 225.866 131.308 208.925L131.454 209.071L32.7491 209.115L32.9392 208.925C32.9392 228.446 32.9392 247.113 32.9392 264.127L32.7638 263.944L103.744 264.032L124.143 264.083H129.582H130.994H131.476H129.568H124.165L103.802 264.134L32.7053 264.222H32.5298V264.046C32.5298 247.032 32.5298 228.366 32.5298 208.844V208.654H32.7272L131.432 208.698H131.579V208.844C131.542 225.829 131.52 239.64 131.498 249.211C131.498 253.978 131.498 257.692 131.498 260.215C131.498 261.465 131.498 262.408 131.498 263.081C131.498 263.754 131.425 264.127 131.425 264.127Z" fill="#E0E0E0"/>
<path d="M58.734 222.085H44.7764V236.043H58.734V222.085Z" fill="#E0E0E0"/>
<path d="M77.897 224.045C75.4647 224.235 73.0243 224.298 70.5855 224.235C68.1588 224.297 65.7306 224.233 63.3105 224.045C65.7306 223.857 68.1588 223.793 70.5855 223.855C73.0243 223.792 75.4647 223.856 77.897 224.045Z" fill="#E0E0E0"/>
<path d="M124.369 229.061C124.369 229.163 110.711 229.251 93.858 229.251C77.005 229.251 63.3472 229.163 63.3472 229.061C63.3472 228.959 77.005 228.871 93.858 228.871C110.711 228.871 124.369 228.959 124.369 229.061Z" fill="#E0E0E0"/>
<path d="M103.839 234.69C103.839 234.793 94.8604 234.88 83.7908 234.88C72.7212 234.88 63.7646 234.793 63.7646 234.69C63.7646 234.588 72.7432 234.5 83.8128 234.5C94.8823 234.5 103.839 234.581 103.839 234.69Z" fill="#E0E0E0"/>
<path d="M116.809 256.808H49.3828C47.6666 256.808 46.0208 256.126 44.8073 254.913C43.5938 253.699 42.9121 252.054 42.9121 250.337C42.9121 249.488 43.0795 248.647 43.4048 247.862C43.7301 247.078 44.2068 246.365 44.8078 245.765C45.4087 245.164 46.1221 244.688 46.9071 244.364C47.6921 244.04 48.5334 243.873 49.3828 243.874H116.809C117.659 243.873 118.5 244.04 119.285 244.364C120.07 244.688 120.783 245.164 121.384 245.765C121.985 246.365 122.462 247.078 122.787 247.862C123.113 248.647 123.28 249.488 123.28 250.337C123.28 252.054 122.598 253.699 121.385 254.913C120.171 256.126 118.525 256.808 116.809 256.808Z" fill="#E0E0E0"/>
<path d="M70.6958 251.258H69.0434L68.729 251.99H67.8882L69.4748 248.429H70.2864L71.8803 251.99H71.0102L70.6958 251.258ZM70.4399 250.63L69.8769 249.27L69.3066 250.63H70.4399Z" fill="white"/>
<path d="M75.3384 249.745C75.3384 250.535 74.7461 251.032 73.7956 251.032H73.0645V251.99H72.2383V248.429H73.781C74.7315 248.451 75.3384 248.941 75.3384 249.745ZM74.5048 249.745C74.5048 249.35 74.2489 249.124 73.7737 249.124H73.101V250.359H73.7737C74.2489 250.359 74.5048 250.133 74.5048 249.745Z" fill="white"/>
<path d="M79.0166 249.745C79.0166 250.535 78.4243 251.032 77.4738 251.032H76.7427V251.99H75.9165V248.429H77.4592C78.4243 248.451 79.0166 248.941 79.0166 249.745ZM78.1831 249.745C78.1831 249.35 77.9272 249.124 77.4519 249.124H76.7866V250.359H77.4519C77.9272 250.359 78.1831 250.133 78.1831 249.745Z" fill="white"/>
<path d="M79.6089 248.451H80.4278V251.339H82.2191V251.99H79.6089V248.451Z" fill="white"/>
<path d="M84.0245 250.747V251.99H83.1983V250.717L81.8237 248.429H82.6938L83.6516 250.008L84.6021 248.429H85.4064L84.0245 250.747Z" fill="white"/>
<path d="M90.4665 248.451V251.99H89.7865L88.0171 249.796V251.99H87.1982V248.429H87.8928L89.6695 250.622V248.429L90.4665 248.451Z" fill="white"/>
<path d="M91.0871 250.228C91.0651 249.838 91.1607 249.45 91.3614 249.115C91.5622 248.78 91.8588 248.512 92.2131 248.348C92.5673 248.183 92.9628 248.128 93.3484 248.191C93.734 248.253 94.092 248.43 94.3761 248.698C94.6602 248.966 94.8573 249.314 94.9419 249.695C95.0266 250.076 94.9949 250.474 94.8509 250.837C94.7069 251.201 94.4573 251.512 94.1343 251.732C93.8114 251.952 93.4299 252.069 93.0392 252.07C92.7882 252.085 92.5368 252.048 92.3004 251.963C92.0641 251.877 91.8478 251.743 91.6649 251.571C91.482 251.398 91.3364 251.19 91.237 250.959C91.1377 250.728 91.0866 250.479 91.0871 250.228ZM94.1506 250.228C94.1448 250.009 94.0748 249.797 93.9492 249.618C93.8237 249.439 93.6482 249.302 93.4447 249.222C93.2411 249.142 93.0187 249.124 92.805 249.171C92.5914 249.217 92.3962 249.325 92.2436 249.481C92.0911 249.638 91.9882 249.836 91.9476 250.051C91.907 250.265 91.9307 250.487 92.0156 250.689C92.1005 250.89 92.2429 251.062 92.425 251.183C92.607 251.304 92.8207 251.368 93.0392 251.368C93.1888 251.372 93.3377 251.346 93.4764 251.289C93.6151 251.233 93.7407 251.149 93.8451 251.042C93.9496 250.934 94.0306 250.807 94.0832 250.667C94.1358 250.527 94.1587 250.377 94.1506 250.228Z" fill="white"/>
<path d="M100.878 248.451L99.7158 251.99H98.8604L98.0707 249.577L97.2665 251.99H96.3818L95.2119 248.429H96.0674L96.8716 250.929L97.7124 248.429H98.4436L99.2625 250.951L100.089 248.429L100.878 248.451Z" fill="white"/>
<path d="M475.329 233.828H376.616V289.022H475.329V233.828Z" fill="#FAFAFA"/>
<path d="M475.329 289.03C475.329 289.03 475.329 288.686 475.329 288.028C475.329 287.37 475.329 286.405 475.329 285.147C475.329 282.61 475.329 278.889 475.292 274.107C475.292 264.551 475.248 250.769 475.212 233.828L475.358 233.974L376.653 234.018L376.843 233.828C376.843 253.35 376.843 272.016 376.843 289.03L376.668 288.847L447.648 288.935L468.047 288.986H473.486H474.898H475.38H473.53H468.127L447.765 289.037L376.668 289.125H376.492V288.949C376.492 271.935 376.492 253.269 376.492 233.747V233.557H376.69L475.395 233.601H475.541V233.747C475.504 250.732 475.482 264.543 475.461 274.114C475.461 278.881 475.461 282.596 475.461 285.118C475.461 286.368 475.461 287.311 475.461 287.984C475.461 288.657 475.329 289.03 475.329 289.03Z" fill="#E0E0E0"/>
<path d="M402.637 246.989H388.68V260.946H402.637V246.989Z" fill="#E0E0E0"/>
<path d="M421.801 248.948C416.954 249.202 412.098 249.202 407.251 248.948C412.098 248.695 416.954 248.695 421.801 248.948Z" fill="#E0E0E0"/>
<path d="M468.273 253.964C468.273 254.066 454.615 254.154 437.762 254.154C420.909 254.154 407.251 254.066 407.251 253.964C407.251 253.861 420.909 253.774 437.762 253.774C454.615 253.774 468.273 253.861 468.273 253.964Z" fill="#E0E0E0"/>
<path d="M447.741 259.594C447.741 259.696 438.762 259.784 427.693 259.784C416.623 259.784 407.645 259.696 407.645 259.594C407.645 259.491 416.623 259.404 427.693 259.404C438.762 259.404 447.741 259.484 447.741 259.594Z" fill="#E0E0E0"/>
<path d="M460.712 281.711H393.285C391.569 281.711 389.923 281.029 388.71 279.815C387.496 278.602 386.814 276.956 386.814 275.24C386.814 274.391 386.982 273.55 387.307 272.765C387.632 271.98 388.109 271.267 388.71 270.667C389.311 270.067 390.024 269.591 390.809 269.267C391.594 268.942 392.436 268.776 393.285 268.777H460.712C461.561 268.776 462.402 268.942 463.187 269.267C463.972 269.591 464.686 270.067 465.287 270.667C465.888 271.267 466.364 271.98 466.69 272.765C467.015 273.55 467.182 274.391 467.182 275.24C467.182 276.956 466.501 278.602 465.287 279.815C464.074 281.029 462.428 281.711 460.712 281.711Z" fill="#E0E0E0"/>
<path d="M414.607 276.154H412.947L412.633 276.885H411.792L413.379 273.324H414.19L415.784 276.885H414.921L414.607 276.154ZM414.344 275.525L413.781 274.158L413.218 275.525H414.344Z" fill="white"/>
<path d="M419.249 274.655C419.249 275.445 418.649 275.942 417.699 275.942H416.967V276.922H416.178V273.361H417.72C418.649 273.354 419.249 273.844 419.249 274.655ZM418.415 274.655C418.415 274.26 418.159 274.034 417.684 274.034H417.011V275.269H417.64C418.159 275.262 418.415 275.028 418.415 274.655Z" fill="white"/>
<path d="M422.926 274.655C422.926 275.445 422.326 275.942 421.376 275.942H420.645V276.922H419.833V273.361H421.376C422.326 273.354 422.926 273.844 422.926 274.655ZM422.085 274.655C422.085 274.26 421.836 274.034 421.354 274.034H420.681V275.269H421.354C421.836 275.262 422.085 275.028 422.085 274.655Z" fill="white"/>
<path d="M423.489 273.354H424.315V276.242H426.099V276.914H423.489V273.354Z" fill="white"/>
<path d="M427.928 275.65V276.914H427.146V275.642L425.764 273.354H426.641L427.592 274.933L428.542 273.354H429.339L427.928 275.65Z" fill="white"/>
<path d="M434.369 273.354V276.914H433.725L431.949 274.721V276.914H431.13V273.354H431.817L433.587 275.547V273.354H434.369Z" fill="white"/>
<path d="M434.998 275.131C434.976 274.74 435.072 274.352 435.273 274.017C435.474 273.682 435.771 273.415 436.126 273.25C436.481 273.086 436.876 273.031 437.262 273.094C437.648 273.157 438.006 273.335 438.29 273.604C438.574 273.873 438.77 274.221 438.854 274.602C438.938 274.984 438.905 275.383 438.76 275.746C438.615 276.109 438.364 276.42 438.04 276.639C437.716 276.857 437.334 276.974 436.943 276.973C436.692 276.988 436.441 276.952 436.205 276.866C435.969 276.78 435.754 276.646 435.571 276.474C435.389 276.301 435.244 276.093 435.145 275.862C435.047 275.631 434.997 275.382 434.998 275.131ZM438.062 275.131C438.057 274.91 437.988 274.696 437.863 274.515C437.737 274.334 437.561 274.194 437.356 274.113C437.151 274.032 436.927 274.013 436.712 274.058C436.496 274.104 436.299 274.212 436.145 274.369C435.99 274.527 435.886 274.726 435.845 274.942C435.803 275.159 435.827 275.382 435.912 275.586C435.997 275.789 436.14 275.962 436.324 276.084C436.507 276.206 436.723 276.271 436.943 276.271C437.093 276.275 437.242 276.249 437.381 276.193C437.52 276.136 437.646 276.052 437.751 275.945C437.856 275.838 437.938 275.71 437.992 275.57C438.045 275.43 438.069 275.28 438.062 275.131Z" fill="white"/>
<path d="M444.781 273.354L443.619 276.914H442.734L441.952 274.502L441.14 276.914H440.263L439.093 273.354H439.948L440.752 275.854L441.586 273.354H442.317L443.129 275.876L443.955 273.354H444.781Z" fill="white"/>
<path d="M510.883 99.0549H396.678V162.913H510.883V99.0549Z" fill="#FAFAFA"/>
<path d="M510.885 162.914C510.885 162.914 510.885 162.519 510.885 161.766C510.885 161.013 510.885 159.894 510.885 158.432C510.885 155.507 510.885 151.193 510.885 145.666C510.885 134.611 510.841 118.665 510.804 99.0552L510.95 99.2014L396.752 99.2453L396.942 99.0552C396.942 121.64 396.942 143.239 396.942 162.914L396.767 162.738L478.897 162.826L502.498 162.877H508.786H510.98H510.446H508.837H502.579L479.021 162.928L396.774 163.016H396.599V162.833C396.599 143.158 396.599 121.56 396.599 98.9748V98.7847H396.796L510.994 98.8285H511.14V98.9748C511.14 118.621 511.082 134.596 511.06 145.673C511.06 151.186 511.06 155.485 511.06 158.41C511.06 159.872 511.06 160.962 511.06 161.715C511.06 162.468 510.885 162.914 510.885 162.914Z" fill="#E0E0E0"/>
<path d="M426.781 114.278H410.637V130.422H426.781V114.278Z" fill="#E0E0E0"/>
<path d="M448.956 116.545C448.956 116.654 445.191 116.735 440.541 116.735C435.89 116.735 432.125 116.654 432.125 116.545C432.125 116.435 435.89 116.354 440.541 116.354C445.191 116.354 448.956 116.442 448.956 116.545Z" fill="#E0E0E0"/>
<path d="M502.725 122.35C502.725 122.459 486.917 122.54 467.425 122.54C447.932 122.54 432.125 122.459 432.125 122.35C432.125 122.24 447.925 122.159 467.425 122.159C486.925 122.159 502.725 122.247 502.725 122.35Z" fill="#E0E0E0"/>
<path d="M478.969 128.864C478.969 128.967 468.586 129.054 455.776 129.054C442.967 129.054 432.577 128.967 432.577 128.864C432.577 128.762 442.959 128.674 455.776 128.674C468.594 128.674 478.969 128.755 478.969 128.864Z" fill="#E0E0E0"/>
<path d="M493.979 139.488H415.958C411.827 139.488 408.479 142.837 408.479 146.967V146.975C408.479 151.106 411.827 154.454 415.958 154.454H493.979C498.11 154.454 501.459 151.106 501.459 146.975V146.967C501.459 142.837 498.11 139.488 493.979 139.488Z" fill="#E0E0E0"/>
<path d="M440.627 148.02H438.712L438.346 148.905H437.381L439.216 144.781H440.159L442.002 148.905H441L440.627 148.02ZM440.327 147.289L439.677 145.71L439.019 147.289H440.327Z" fill="white"/>
<path d="M446.001 146.28C446.001 147.194 445.314 147.743 444.21 147.743H443.384V148.898H442.426V144.774H444.21C445.314 144.781 446.001 145.352 446.001 146.28ZM445.036 146.28C445.036 145.827 444.744 145.549 444.159 145.549H443.384V147.011H444.159C444.744 146.99 445.036 146.704 445.036 146.28Z" fill="white"/>
<path d="M450.257 146.28C450.257 147.194 449.57 147.743 448.466 147.743H447.617V148.898H446.667V144.774H448.451C449.57 144.781 450.257 145.352 450.257 146.28ZM449.292 146.28C449.292 145.827 448.992 145.549 448.414 145.549H447.617V147.011H448.4C448.992 146.99 449.292 146.704 449.292 146.28Z" fill="white"/>
<path d="M450.937 144.781H451.887V148.166H453.956V148.898H450.937V144.781Z" fill="white"/>
<path d="M456.047 147.435V148.898H455.096V147.435L453.466 144.781H454.482L455.579 146.609L456.683 144.781H457.619L456.047 147.435Z" fill="white"/>
<path d="M463.498 144.781V148.898H462.716L460.661 146.39V148.898H459.718V144.774H460.507L462.562 147.275V144.774L463.498 144.781Z" fill="white"/>
<path d="M464.222 146.843C464.197 146.391 464.308 145.943 464.541 145.555C464.774 145.167 465.118 144.859 465.529 144.669C465.939 144.478 466.397 144.416 466.844 144.489C467.29 144.562 467.704 144.768 468.032 145.079C468.361 145.39 468.588 145.793 468.685 146.235C468.782 146.676 468.744 147.137 468.576 147.557C468.408 147.977 468.118 148.337 467.743 148.59C467.369 148.844 466.926 148.979 466.474 148.978C466.184 148.995 465.893 148.952 465.62 148.853C465.347 148.753 465.097 148.598 464.886 148.398C464.675 148.198 464.507 147.957 464.393 147.689C464.279 147.422 464.221 147.134 464.222 146.843ZM467.768 146.843C467.764 146.588 467.684 146.34 467.54 146.13C467.395 145.92 467.191 145.758 466.954 145.663C466.718 145.569 466.458 145.546 466.208 145.598C465.959 145.651 465.73 145.776 465.552 145.958C465.373 146.139 465.252 146.37 465.203 146.62C465.155 146.871 465.182 147.13 465.281 147.365C465.379 147.6 465.545 147.801 465.757 147.942C465.97 148.084 466.219 148.159 466.474 148.159C466.647 148.163 466.819 148.132 466.979 148.067C467.14 148.002 467.285 147.905 467.406 147.781C467.528 147.658 467.622 147.511 467.685 147.35C467.747 147.188 467.775 147.016 467.768 146.843Z" fill="white"/>
<path d="M475.548 144.781L474.202 148.898H473.208L472.294 146.105L471.329 148.898H470.283L468.931 144.774H469.918L470.846 147.699L471.819 144.774H472.703L473.647 147.699L474.604 144.774L475.548 144.781Z" fill="white"/>
<path d="M432.052 0.810791H93.6909V21.3926H432.052V0.810791Z" fill="#E0E0E0"/>
<path d="M386.501 290.346C386.501 290.455 329.88 290.536 260.012 290.536C190.143 290.536 133.523 290.455 133.523 290.346C133.523 290.236 190.136 290.156 260.012 290.156C329.888 290.156 386.501 290.243 386.501 290.346Z" fill="#263238"/>
<path d="M239.087 228.279H234.079V254.658H239.087V228.279Z" fill="#E0E0E0"/>
<path d="M239.094 254.651C239.082 254.471 239.082 254.29 239.094 254.11C239.094 253.73 239.094 253.225 239.094 252.589C239.094 251.244 239.094 249.358 239.036 247.011C239.036 242.273 238.984 235.714 238.955 228.279L239.145 228.461H234.071C234.444 228.081 234.173 228.359 234.261 228.279V236.321C234.261 238.88 234.261 241.315 234.261 243.574C234.261 248.071 234.217 251.88 234.203 254.673L234.093 254.571L237.749 254.629H238.728H239.087C238.982 254.64 238.877 254.64 238.772 254.629H237.807L234.071 254.68H233.976V254.571C233.976 251.778 233.939 247.99 233.917 243.472C233.917 241.213 233.917 238.778 233.917 236.219V232.285C233.917 231.62 233.917 230.94 233.917 230.26V228.213L234.115 228.015H239.306V228.205C239.306 235.692 239.248 242.295 239.226 247.069C239.226 249.394 239.182 251.273 239.174 252.611C239.174 253.225 239.174 253.715 239.174 254.074C239.162 254.268 239.135 254.461 239.094 254.651Z" fill="#263238"/>
<path d="M248.182 224.279H224.785C223.119 224.279 221.521 223.618 220.342 222.44C219.163 221.262 218.499 219.665 218.498 217.999H254.47C254.468 219.665 253.805 221.262 252.626 222.44C251.447 223.618 249.849 224.279 248.182 224.279Z" fill="#263238"/>
<path d="M268.838 219.227H228.01V210.497H268.838C270.001 210.497 271.117 210.959 271.94 211.782C272.762 212.604 273.225 213.72 273.225 214.884C273.213 216.04 272.746 217.144 271.924 217.957C271.103 218.771 269.994 219.227 268.838 219.227Z" fill="#FF725E"/>
<path d="M196.278 147.779C195.156 147.931 194.137 148.514 193.439 149.406C192.741 150.298 192.419 151.427 192.542 152.553L198.435 206.117C198.841 209.723 200.561 213.053 203.266 215.471C205.972 217.889 209.473 219.226 213.102 219.227H228.675C229.839 219.227 230.954 218.765 231.777 217.942C232.6 217.119 233.062 216.003 233.062 214.84C233.062 213.676 232.6 212.561 231.777 211.738C230.954 210.915 229.839 210.453 228.675 210.453H215.449C213.631 210.453 211.876 209.793 210.508 208.597C209.14 207.4 208.254 205.747 208.013 203.946L201.169 151.515C201.095 150.949 200.909 150.403 200.623 149.908C200.337 149.414 199.956 148.981 199.502 148.634C199.049 148.287 198.531 148.033 197.979 147.886C197.427 147.739 196.851 147.703 196.285 147.779H196.278Z" fill="#FF725E"/>
<path d="M245.893 210.921L201.505 211.543L197.169 147.735L234.319 147.501C236.108 147.511 237.819 148.23 239.078 149.501C240.336 150.772 241.039 152.49 241.031 154.279L245.893 210.921Z" fill="#FF725E"/>
<g opacity="0.3">
<path opacity="0.3" d="M196.278 147.779C195.156 147.931 194.137 148.514 193.439 149.406C192.741 150.298 192.419 151.427 192.542 152.553L198.435 206.117C198.841 209.723 200.561 213.053 203.267 215.471C205.972 217.889 209.473 219.226 213.102 219.227H228.676C229.839 219.227 230.955 218.765 231.778 217.942C232.6 217.119 233.062 216.003 233.062 214.84C233.062 213.676 232.6 212.561 231.778 211.738C230.955 210.915 229.839 210.453 228.676 210.453H214.499C210.74 210.453 208.101 207.792 207.604 204.063L201.17 151.515C201.095 150.949 200.909 150.403 200.623 149.908C200.337 149.414 199.956 148.981 199.503 148.634C199.049 148.287 198.531 148.033 197.979 147.886C197.427 147.739 196.852 147.703 196.286 147.779H196.278Z" fill="black"/>
</g>
<path d="M241.433 224.279H231.731V229.324H241.433V224.279Z" fill="#263238"/>
<path d="M238.399 253.174H234.634C233.031 253.174 231.731 254.474 231.731 256.077V273.383C231.731 274.986 233.031 276.286 234.634 276.286H238.399C240.002 276.286 241.302 274.986 241.302 273.383V256.077C241.302 254.474 240.002 253.174 238.399 253.174Z" fill="#E0E0E0"/>
<path d="M238.407 276.286C238.407 276.286 238.619 276.286 239.007 276.183C239.487 276.063 239.929 275.823 240.291 275.485C240.652 275.147 240.923 274.723 241.076 274.253C241.198 273.776 241.24 273.282 241.2 272.791C241.2 271.701 241.2 270.466 241.2 269.135C241.2 266.386 241.2 263.139 241.157 259.535C241.157 258.636 241.157 257.707 241.157 256.764C241.19 256.303 241.155 255.84 241.054 255.389C240.936 254.945 240.704 254.54 240.382 254.212C240.059 253.871 239.653 253.619 239.204 253.481C238.725 253.371 238.232 253.334 237.742 253.371H234.657C234.173 253.372 233.699 253.502 233.282 253.747C232.866 253.993 232.522 254.345 232.288 254.768C232.061 255.183 231.943 255.648 231.944 256.12V257.583C231.944 259.542 231.944 261.443 231.944 263.249C231.944 266.854 231.944 270.1 231.907 272.842C231.84 273.471 231.949 274.106 232.222 274.677C232.473 275.136 232.846 275.515 233.301 275.774C233.756 276.032 234.273 276.159 234.796 276.139H236.068L237.83 276.176C238.035 276.168 238.241 276.18 238.444 276.212C238.24 276.228 238.034 276.228 237.83 276.212L236.068 276.249H234.796C234.232 276.276 233.672 276.145 233.18 275.87C232.687 275.594 232.282 275.186 232.01 274.692C231.854 274.401 231.745 274.088 231.688 273.763C231.642 273.424 231.625 273.082 231.637 272.739C231.637 269.998 231.637 266.751 231.593 263.147C231.593 261.341 231.593 259.44 231.593 257.48V256.018C231.587 255.609 231.663 255.203 231.815 254.824C231.968 254.444 232.194 254.099 232.481 253.808C232.768 253.517 233.11 253.286 233.488 253.128C233.865 252.97 234.27 252.889 234.679 252.889H237.727C238.25 252.851 238.775 252.893 239.285 253.013C239.791 253.168 240.251 253.447 240.623 253.825C240.972 254.201 241.223 254.658 241.354 255.155C241.456 255.636 241.493 256.127 241.464 256.618C241.464 257.561 241.464 258.489 241.464 259.389C241.464 262.993 241.464 266.24 241.427 268.989C241.427 270.349 241.427 271.584 241.427 272.644C241.458 273.157 241.403 273.671 241.266 274.165C241.121 274.58 240.889 274.959 240.586 275.277C240.168 275.71 239.627 276.003 239.036 276.117C238.837 276.206 238.625 276.263 238.407 276.286Z" fill="#263238"/>
<path d="M264.45 274.853H207.493C206.732 274.825 205.973 274.958 205.267 275.243C204.56 275.527 203.921 275.957 203.392 276.505C201.279 278.699 201.41 282.354 201.418 282.486L204.013 282.376C204.013 281.645 204.152 279.452 205.271 278.296C205.558 278.011 205.901 277.788 206.278 277.642C206.656 277.496 207.06 277.43 207.464 277.448H222.409V284.065H225.004V277.448H264.421C265.223 277.45 265.992 277.77 266.559 278.337C267.126 278.904 267.446 279.673 267.448 280.475V282.427H270.043V280.504C270.049 279.014 269.463 277.582 268.415 276.522C267.366 275.463 265.94 274.862 264.45 274.853Z" fill="#E0E0E0"/>
<path d="M264.451 274.853C264.694 274.835 264.938 274.835 265.182 274.853C265.877 274.928 266.551 275.134 267.17 275.459C268.178 276.009 269.002 276.843 269.539 277.858C269.878 278.505 270.087 279.213 270.154 279.941C270.205 280.724 270.154 281.528 270.19 282.398V282.493H267.404V282.391C267.331 281.126 267.697 279.576 266.637 278.494C266.138 277.947 265.451 277.61 264.714 277.55C263.983 277.55 263.134 277.55 262.316 277.55H251.487H225.064L225.239 277.368C225.239 279.451 225.239 281.703 225.239 283.985V284.175H222.271V277.368L222.461 277.558H207.245C206.725 277.574 206.219 277.733 205.783 278.018C205.363 278.325 205.03 278.736 204.818 279.21C204.387 280.176 204.175 281.224 204.197 282.281V282.471H204.021L201.426 282.581H201.235V282.391C201.211 281.163 201.402 279.941 201.798 278.779C202.171 277.615 202.862 276.579 203.794 275.788C204.745 275.044 205.907 274.621 207.114 274.582C208.284 274.582 209.41 274.582 210.543 274.582H223.455L245.002 274.626L259.289 274.677L263.127 274.714H264.122H264.458C264.458 274.714 264.348 274.714 264.122 274.714H263.127H259.289L245.002 274.772L223.455 274.816H210.543C209.417 274.816 208.269 274.816 207.136 274.816C206.004 274.851 204.914 275.251 204.028 275.957C203.147 276.701 202.493 277.679 202.142 278.779C201.765 279.897 201.587 281.072 201.616 282.252L201.418 282.076L204.006 281.967L203.831 282.157C203.804 281.037 204.029 279.925 204.489 278.903C204.73 278.37 205.106 277.909 205.578 277.565C206.07 277.24 206.642 277.058 207.231 277.039H222.636V277.229C222.636 279.503 222.636 281.755 222.636 283.846L222.453 283.663H225.042L224.859 283.846C224.859 281.565 224.859 279.313 224.859 277.229V277.046H225.042H251.465H262.294C263.12 277.046 263.909 277.046 264.714 277.046C265.487 277.114 266.209 277.465 266.74 278.031C267.272 278.598 267.576 279.34 267.594 280.117C267.594 280.811 267.594 281.484 267.594 282.135L267.492 282.032H270.088L269.993 282.12C269.993 281.257 270.029 280.431 269.993 279.678C269.937 278.969 269.741 278.278 269.415 277.646C268.905 276.646 268.112 275.819 267.134 275.269C266.529 274.934 265.867 274.713 265.182 274.619C264.692 274.867 264.451 274.867 264.451 274.853Z" fill="#263238"/>
<path d="M228.734 287.151C228.735 288.156 228.438 289.139 227.881 289.976C227.323 290.812 226.53 291.465 225.602 291.85C224.674 292.236 223.652 292.338 222.665 292.143C221.679 291.947 220.773 291.464 220.062 290.754C219.35 290.043 218.866 289.138 218.669 288.152C218.472 287.166 218.573 286.144 218.957 285.215C219.341 284.286 219.993 283.492 220.828 282.933C221.664 282.375 222.647 282.076 223.652 282.076C224.999 282.076 226.29 282.611 227.243 283.562C228.196 284.514 228.732 285.804 228.734 287.151Z" fill="#263238"/>
<path d="M207.793 285.915C207.793 286.92 207.495 287.902 206.937 288.738C206.379 289.574 205.585 290.225 204.656 290.61C203.728 290.994 202.706 291.095 201.721 290.899C200.735 290.703 199.829 290.219 199.119 289.508C198.408 288.797 197.924 287.892 197.728 286.906C197.532 285.921 197.633 284.899 198.017 283.97C198.402 283.042 199.053 282.248 199.889 281.69C200.724 281.132 201.707 280.833 202.712 280.833C204.06 280.833 205.352 281.369 206.305 282.322C207.258 283.275 207.793 284.567 207.793 285.915Z" fill="#263238"/>
<path d="M273.268 286.098C273.27 287.103 272.973 288.086 272.416 288.923C271.858 289.76 271.065 290.412 270.137 290.798C269.208 291.183 268.186 291.285 267.2 291.09C266.214 290.895 265.308 290.411 264.596 289.701C263.885 288.991 263.4 288.085 263.204 287.099C263.007 286.113 263.107 285.091 263.492 284.162C263.876 283.233 264.527 282.439 265.363 281.881C266.199 281.322 267.182 281.024 268.187 281.024C269.533 281.024 270.825 281.558 271.778 282.509C272.73 283.461 273.266 284.751 273.268 286.098Z" fill="#263238"/>
<path d="M269.934 210.497C269.934 210.599 257.417 210.731 241.982 210.789C226.548 210.848 214.03 210.789 214.03 210.702C214.03 210.614 226.54 210.468 241.982 210.409C257.424 210.351 269.934 210.387 269.934 210.497Z" fill="#263238"/>
<path d="M207.663 203.237C207.56 203.237 206.017 191.684 204.226 177.405C202.435 163.126 201.06 151.53 201.163 151.515C201.265 151.501 202.808 163.067 204.599 177.354C206.39 191.641 207.75 203.222 207.663 203.237Z" fill="#263238"/>
<path d="M200.693 147.655C200.821 147.606 200.953 147.571 201.088 147.552C201.47 147.486 201.856 147.447 202.243 147.435C203.678 147.385 205.109 147.606 206.462 148.086C207.408 148.428 208.252 149.001 208.919 149.753C209.652 150.621 210.283 151.57 210.798 152.583C211.895 154.696 213.116 156.97 214.454 159.375C217.137 164.135 219.659 168.405 221.37 171.563C222.24 173.135 222.906 174.422 223.359 175.321C223.564 175.738 223.725 176.053 223.863 176.36C223.931 176.478 223.981 176.606 224.01 176.74C223.927 176.631 223.854 176.517 223.79 176.396L223.227 175.387L221.136 171.695C219.367 168.573 216.808 164.332 214.117 159.558C212.772 157.174 211.558 154.857 210.461 152.751C209.97 151.754 209.361 150.818 208.648 149.965C208.025 149.236 207.228 148.675 206.331 148.335C205.012 147.85 203.619 147.602 202.214 147.604C201.249 147.574 200.701 147.691 200.693 147.655Z" fill="#263238"/>
<path d="M192.842 150.433C192.937 150.484 189.574 156.348 185.341 163.521C181.108 170.693 177.598 176.477 177.503 176.425C177.408 176.374 180.771 170.51 185.012 163.331C189.252 156.151 192.755 150.36 192.842 150.433Z" fill="#263238"/>
<path d="M232.499 176.418H171.645V194.36H232.499V176.418Z" fill="#FAFAFA"/>
<path d="M230.532 192.767C230.532 192.767 230.532 192.679 230.532 192.503C230.532 192.328 230.532 192.079 230.532 191.772C230.532 191.107 230.532 190.142 230.532 188.899C230.532 186.384 230.532 182.735 230.473 178.129L230.583 178.239L173.188 178.319C173.268 178.231 172.99 178.509 173.37 178.129V192.752L173.18 192.569L214.125 192.65L226.196 192.701H229.457H230.305H230.597C230.507 192.708 230.417 192.708 230.327 192.701H229.501H226.284L214.256 192.752L173.195 192.84H173.012V192.767C173.012 190.405 173.012 187.992 173.012 185.55V178.085C173.392 177.705 173.122 177.976 173.21 177.895L230.605 177.968H230.722V178.085C230.722 182.721 230.671 186.391 230.656 188.921C230.656 190.156 230.656 191.114 230.656 191.772V192.503C230.625 192.596 230.583 192.684 230.532 192.767Z" fill="#263238"/>
<path d="M236.483 87.3936H241.111L236.527 91.137H233.215L236.483 87.3936Z" fill="#263238"/>
<path d="M198.179 68.2227L197.448 52.6858C197.42 52.0721 197.167 51.4901 196.739 51.0496C196.311 50.6092 195.736 50.3407 195.123 50.2949C194.479 50.2448 193.84 50.4446 193.339 50.8531C192.838 51.2615 192.513 51.8471 192.433 52.4884L190.466 68.0619C190.435 68.3377 190.463 68.6169 190.547 68.8813C190.631 69.1458 190.771 69.3894 190.956 69.5964C191.14 69.8034 191.367 69.969 191.62 70.0826C191.873 70.1961 192.148 70.255 192.425 70.2553H196.213C196.476 70.2535 196.736 70.1991 196.978 70.0955C197.221 69.9919 197.44 69.841 197.623 69.6518C197.806 69.4625 197.949 69.2387 198.045 68.9933C198.141 68.7479 198.186 68.486 198.179 68.2227Z" fill="#E0E0E0"/>
<path d="M191.139 41.4991C191.386 40.792 191.837 40.1742 192.436 39.7237C193.034 39.2732 193.753 39.0103 194.501 38.9682C195.248 38.926 195.992 39.1066 196.637 39.4871C197.283 39.8675 197.8 40.4308 198.126 41.1056C198.451 41.7804 198.568 42.5364 198.464 43.2781C198.359 44.0199 198.037 44.7139 197.538 45.2725C197.039 45.8312 196.386 46.2293 195.661 46.4166C194.935 46.6039 194.171 46.5719 193.464 46.3247C192.994 46.1605 192.562 45.9055 192.191 45.5741C191.82 45.2427 191.518 44.8416 191.302 44.3935C191.086 43.9453 190.96 43.4591 190.932 42.9625C190.904 42.4659 190.974 41.9686 191.139 41.4991Z" fill="#E0E0E0"/>
<path d="M157.513 87.8541L148.462 80.1697C148.103 79.8692 147.647 79.7095 147.179 79.7202C146.71 79.731 146.262 79.9115 145.917 80.2282C145.555 80.5622 145.336 81.0228 145.305 81.5143C145.273 82.0058 145.433 82.4905 145.749 82.8677L153.412 92.0655C153.549 92.229 153.719 92.3615 153.911 92.4545C154.103 92.5475 154.313 92.5988 154.526 92.605C154.74 92.6112 154.952 92.5722 155.149 92.4906C155.347 92.4089 155.524 92.2865 155.671 92.1313L157.638 90.0183C157.776 89.8702 157.883 89.6956 157.952 89.505C158.02 89.3145 158.05 89.1119 158.038 88.9096C158.027 88.7073 157.974 88.5095 157.884 88.3281C157.794 88.1467 157.668 87.9854 157.513 87.8541Z" fill="#F5F5F5"/>
<path d="M138.941 77.8886C138.665 77.3772 138.547 76.7951 138.603 76.2165C138.659 75.638 138.886 75.0892 139.255 74.6403C139.625 74.1914 140.119 73.8628 140.676 73.6963C141.233 73.5298 141.827 73.533 142.382 73.7056C142.937 73.8781 143.428 74.2121 143.793 74.665C144.157 75.1179 144.378 75.6691 144.428 76.2482C144.478 76.8274 144.354 77.4082 144.072 77.9165C143.79 78.4249 143.363 78.8377 142.845 79.1023C142.165 79.4502 141.375 79.5179 140.646 79.2911C139.916 79.0643 139.304 78.5609 138.941 77.8886Z" fill="#F5F5F5"/>
<path d="M149.836 51.7207L163.727 75.2929C164.277 76.225 165.148 76.924 166.177 77.258C167.206 77.592 168.321 77.538 169.313 77.1062C170.357 76.6522 171.186 75.8148 171.629 74.7671C172.073 73.7194 172.097 72.5414 171.697 71.4764L161.965 45.6229C161.791 45.1625 161.521 44.7444 161.173 44.3962C160.825 44.0479 160.407 43.7774 159.947 43.6026C159.487 43.4277 158.994 43.3525 158.503 43.3819C158.012 43.4113 157.532 43.5447 157.096 43.7731L151.196 46.8732C150.78 47.0941 150.414 47.3971 150.118 47.7636C149.823 48.1302 149.606 48.5529 149.478 49.006C149.351 49.4591 149.317 49.9333 149.379 50.3999C149.44 50.8665 149.596 51.3159 149.836 51.7207Z" fill="#E0E0E0"/>
<path d="M182.751 87.5249C182.948 88.8292 182.753 90.1625 182.192 91.3562C181.631 92.5499 180.728 93.5502 179.598 94.2308C178.468 94.9113 177.162 95.2414 175.844 95.1794C174.527 95.1173 173.257 94.6659 172.196 93.8822C171.135 93.0985 170.33 92.0177 169.884 90.7765C169.437 89.5354 169.368 88.1897 169.687 86.9096C170.005 85.6296 170.696 84.4726 171.672 83.5852C172.648 82.6978 173.865 82.1198 175.169 81.9243C176.917 81.6623 178.698 82.105 180.12 83.1552C181.541 84.2054 182.488 85.7771 182.751 87.5249Z" fill="#E0E0E0"/>
<path d="M432.044 310.211C432.044 308.836 431.979 186.873 431.884 0.810703L432.044 0.971557L93.6906 1.0008L93.8807 0.810703C93.8807 113.525 93.8807 219.512 93.8807 310.211L93.7199 310.043L432.074 310.211L93.6906 310.379H93.5225V310.211C93.5225 219.549 93.5225 113.532 93.5225 0.810703V0.620605H93.7418H432.066H432.213V0.781456C432.11 186.873 432.044 308.836 432.044 310.211Z" fill="#263238"/>
<path d="M103.093 13.7593C104.64 13.7593 105.894 12.5056 105.894 10.959C105.894 9.41243 104.64 8.15869 103.093 8.15869C101.547 8.15869 100.293 9.41243 100.293 10.959C100.293 12.5056 101.547 13.7593 103.093 13.7593Z" fill="white"/>
<path d="M112.715 13.7593C114.262 13.7593 115.516 12.5056 115.516 10.959C115.516 9.41243 114.262 8.15869 112.715 8.15869C111.169 8.15869 109.915 9.41243 109.915 10.959C109.915 12.5056 111.169 13.7593 112.715 13.7593Z" fill="white"/>
<path d="M122.336 13.7593C123.882 13.7593 125.136 12.5056 125.136 10.959C125.136 9.41243 123.882 8.15869 122.336 8.15869C120.789 8.15869 119.536 9.41243 119.536 10.959C119.536 12.5056 120.789 13.7593 122.336 13.7593Z" fill="white"/>
<path d="M254.57 69.2023C252.2 68.6067 249.908 67.7355 247.741 66.6067C248.945 66.8353 250.118 67.2034 251.236 67.7034C252.402 68.0707 253.521 68.5737 254.57 69.2023Z" fill="#455A64"/>
<path d="M245.219 83.9275C244.488 83.8471 242.513 84.8268 240.868 86.779L240.788 86.8667C239.625 88.1755 238.902 84.1542 238.828 82.6699C238.809 82.4395 238.737 82.2164 238.619 82.0173C238.502 81.8182 238.341 81.6481 238.148 81.5196C237.956 81.3911 237.737 81.3075 237.508 81.2751C237.279 81.2426 237.046 81.262 236.825 81.3319L231.707 83.2914L230.245 83.2402C229.889 83.3353 229.582 83.5614 229.385 83.8732C229.188 84.185 229.117 84.5596 229.185 84.9219L230.998 92.8841L230.903 95.019L240.7 97.0516L241.227 91.7289C241.417 91.122 241.665 90.4055 241.958 89.5939C242.253 88.8606 242.67 88.1831 243.193 87.5906C243.767 86.9166 244.409 86.304 245.109 85.7627L245.277 85.6676C245.391 85.6128 245.493 85.5357 245.577 85.441C245.703 85.3388 245.798 85.2029 245.851 85.0491C245.903 84.8953 245.911 84.7297 245.874 84.5716C245.836 84.4134 245.755 84.269 245.639 84.1551C245.523 84.0412 245.377 83.9623 245.219 83.9275Z" fill="#FFBE9D"/>
<path d="M243.069 61.4815C243.069 61.4815 237.22 60.7503 228.446 53.7606C219.672 46.7708 214.898 36.8272 213.918 36.9441C212.938 37.0611 208.434 35.4818 201.92 54.0969C195.405 72.7119 198.995 76.5285 200.648 76.3458C202.3 76.163 213.077 72.0247 220.052 72.1636C227.027 72.3025 236.269 75.0882 236.269 75.0882L243.069 61.4815Z" fill="#FF725E"/>
<path d="M256.156 70.0506L254.547 73.9476L253.816 75.6951C253.341 76.8492 252.442 77.7771 251.303 78.2873C250.164 78.7975 248.873 78.851 247.696 78.4369L235.011 75.3149L240.626 58.3157L253.509 63.6969C254.701 64.1906 255.648 65.1363 256.144 66.3272C256.64 67.518 256.644 68.8568 256.156 70.0506Z" fill="#263238"/>
<path d="M251.155 75.783L246.907 83.3139L244.97 82.6924L231.714 92.5995L228.417 85.4342C228.417 85.4342 236.13 82.5096 237.651 79.8409C239.172 77.1722 237.57 76.5215 237.57 76.5215L241.299 72.6099L251.155 75.783Z" fill="#263238"/>
<path d="M202.593 54.3818C199.142 64.4498 198.133 73.2235 200.348 73.9839C202.564 74.7443 207.148 67.1916 210.584 57.1237C214.021 47.0557 215.044 38.2819 212.829 37.5215C210.614 36.7612 206.044 44.3432 202.593 54.3818Z" fill="#263238"/>
<path d="M257.713 75.3221L254.284 74.591L255.98 70.4746L258.62 71.7907L257.713 75.3221Z" fill="#455A64"/>
<path d="M253.773 71.5932C253.73 71.7101 252.011 71.2203 249.928 70.5037C248.642 70.1384 247.399 69.6359 246.221 69.0049C247.537 69.2349 248.825 69.6 250.067 70.0943C251.351 70.463 252.594 70.9654 253.773 71.5932Z" fill="#455A64"/>
<path d="M252.698 74.1671C252.698 74.2256 252.289 74.1671 251.638 74.0355L250.497 73.7722C250.073 73.6626 249.627 73.4871 249.152 73.3262C247.982 72.9855 246.861 72.494 245.818 71.864C245.862 71.747 247.412 72.2661 249.298 72.9314C249.766 73.0996 250.205 73.2824 250.622 73.414C251.038 73.5456 251.404 73.648 251.711 73.7576C252.34 73.9477 252.698 74.1086 252.698 74.1671Z" fill="#455A64"/>
<path d="M211.279 51.3915C211.279 51.3915 206.007 48.7739 203.916 55.7783C201.825 62.7828 207.169 63.3531 207.169 63.3531C209.1 59.5809 210.483 55.5534 211.279 51.3915Z" fill="#FAFAFA"/>
<path d="M215.819 42.8811C215.831 43.3186 215.806 43.7564 215.746 44.1899C215.665 45.0234 215.556 46.2371 215.373 47.7359C215.234 48.4671 215.073 49.286 214.912 50.156C214.825 50.5874 214.737 51.0407 214.649 51.5014C214.598 51.7353 214.554 51.9693 214.51 52.2325C214.466 52.4957 214.378 52.7077 214.313 52.9636L213.465 55.9687C213.391 56.2319 213.311 56.4951 213.238 56.7583C213.165 57.0215 213.048 57.2774 212.96 57.548L212.361 59.1419C212.163 59.6756 211.958 60.2093 211.761 60.7358C211.659 60.999 211.578 61.2622 211.461 61.5108L211.11 62.2419L209.772 65.0715C209.67 65.2908 209.568 65.5175 209.451 65.7295C209.334 65.9415 209.217 66.1536 209.092 66.3583L208.405 67.5501C207.959 68.2812 207.55 69.0124 207.169 69.6777C206.321 70.9207 205.612 71.9077 205.122 72.6023C204.885 72.9671 204.618 73.3119 204.325 73.6332C204.511 73.2391 204.731 72.8622 204.983 72.5073L206.913 69.5169L208.098 67.3746L208.763 66.1828L209.107 65.5613C209.224 65.3493 209.319 65.1227 209.421 64.896C209.838 63.9967 210.277 63.0535 210.723 62.0811L211.066 61.3499C211.183 61.1013 211.264 60.8308 211.366 60.5749C211.564 60.0558 211.761 59.5221 211.958 58.9883L212.558 57.409C212.646 57.1458 212.763 56.8899 212.836 56.6267C212.909 56.3635 212.989 56.1003 213.062 55.8444L213.933 52.8613C213.998 52.6273 214.079 52.3934 214.13 52.1301C214.181 51.8669 214.232 51.6622 214.276 51.399C214.379 50.9457 214.466 50.4997 214.561 50.0683C214.744 49.2055 214.92 48.4086 215.073 47.6701C215.285 46.2078 215.461 45.0087 215.578 44.1533C215.626 43.7238 215.706 43.2985 215.819 42.8811Z" fill="#263238"/>
<path d="M235.202 79.7161C234.936 79.8169 234.717 80.0143 234.59 80.269C234.463 80.5237 234.436 80.817 234.515 81.0906C234.815 82.1946 235.312 83.9202 235.699 84.9803C235.807 85.3256 235.978 85.6479 236.204 85.9308C236.315 86.0678 236.462 86.1711 236.629 86.2292C236.795 86.2873 236.975 86.2979 237.147 86.2598C237.322 86.1856 237.473 86.0655 237.585 85.9124C237.697 85.7592 237.765 85.5786 237.783 85.3898C237.812 85.0047 237.767 84.6175 237.651 84.2492C237.403 83.2256 236.92 81.6828 236.555 80.4253C236.518 80.2858 236.453 80.1554 236.364 80.0421C236.275 79.9287 236.164 79.8349 236.037 79.7663C235.91 79.6978 235.771 79.656 235.627 79.6436C235.483 79.6311 235.339 79.6484 235.202 79.6941V79.7161Z" fill="#FFBE9D"/>
<path d="M233.564 81.6321C233.296 81.7315 233.076 81.9284 232.947 82.1832C232.819 82.4381 232.791 82.7321 232.87 83.0066C233.177 84.1107 233.674 85.8362 234.061 86.889C234.165 87.237 234.333 87.5621 234.559 87.8468C234.67 87.9838 234.817 88.0871 234.983 88.1452C235.15 88.2033 235.329 88.2139 235.502 88.1758C235.678 88.1043 235.831 87.985 235.944 87.8313C236.056 87.6776 236.123 87.4956 236.138 87.3058C236.172 86.9211 236.13 86.5334 236.013 86.1652C235.758 85.1416 235.282 83.5915 234.917 82.334C234.88 82.1945 234.815 82.0641 234.726 81.9507C234.637 81.8374 234.526 81.7435 234.399 81.675C234.272 81.6064 234.133 81.5647 233.989 81.5523C233.845 81.5398 233.701 81.557 233.564 81.6028V81.6321Z" fill="#FFBE9D"/>
<path d="M232.027 82.7505C231.789 82.8294 231.591 82.9979 231.475 83.2204C231.359 83.4429 231.334 83.7018 231.406 83.9423C231.684 84.8928 232.137 86.3989 232.488 87.3129C232.587 87.6114 232.741 87.889 232.941 88.1317C233.044 88.2529 233.178 88.344 233.329 88.3955C233.479 88.447 233.641 88.4569 233.797 88.4242C233.951 88.3667 234.086 88.2682 234.188 88.1393C234.289 88.0104 234.354 87.856 234.374 87.693C234.397 87.3596 234.357 87.0249 234.257 86.706C234.023 85.814 233.607 84.5125 233.248 83.3866C233.167 83.1442 232.993 82.9438 232.764 82.8288C232.535 82.7138 232.271 82.6936 232.027 82.7724V82.7505Z" fill="#FFBE9D"/>
<path d="M230.09 83.0431C229.852 83.1221 229.653 83.2903 229.536 83.5125C229.419 83.7346 229.392 83.9935 229.462 84.2349C229.747 85.1927 230.193 86.7062 230.558 87.6201C230.652 87.9257 230.806 88.2092 231.012 88.4536C231.11 88.5939 231.251 88.699 231.414 88.7536C231.576 88.8082 231.752 88.8095 231.915 88.7573C232.078 88.705 232.22 88.602 232.321 88.4632C232.422 88.3244 232.475 88.1571 232.474 87.9857C232.498 87.6517 232.456 87.3162 232.35 86.9986C232.116 86.0993 231.699 84.754 231.341 83.6573C231.301 83.5359 231.238 83.4235 231.154 83.3267C231.071 83.23 230.969 83.1507 230.855 83.0936C230.741 83.0365 230.616 83.0026 230.489 82.9939C230.361 82.9853 230.233 83.002 230.112 83.0431H230.09Z" fill="#FFBE9D"/>
<path d="M236.093 85.9676C235.689 85.371 235.395 84.7076 235.223 84.0081C234.931 83.3502 234.765 82.6434 234.733 81.9243C235.141 82.5183 235.436 83.1826 235.603 83.8838C235.899 84.5403 236.065 85.2479 236.093 85.9676Z" fill="#EB996E"/>
<path d="M234.339 87.4812C233.911 86.7858 233.6 86.0251 233.418 85.2293C233.108 84.4749 232.925 83.6744 232.876 82.8604C233.304 83.5557 233.615 84.3164 233.798 85.1123C234.111 85.8656 234.294 86.6666 234.339 87.4812Z" fill="#EB996E"/>
<path d="M232.613 87.5981C232.158 87.024 231.834 86.3579 231.662 85.646C231.363 84.9777 231.221 84.25 231.245 83.5183C231.604 84.1452 231.872 84.8197 232.042 85.5217C232.336 86.181 232.529 86.8811 232.613 87.5981Z" fill="#EB996E"/>
<path d="M293.576 61.0063C290.79 56.2977 285.76 53.2415 280.481 51.7865C278.287 51.1797 276.752 51.3478 274.464 51.6037C272.183 51.7964 270.045 52.7881 268.424 54.404C266.438 56.3021 264.965 58.6713 264.14 61.2915C263.331 63.9833 262.773 66.7442 262.473 69.5388C262.176 72.3504 262.662 75.1892 263.877 77.7423L270.735 80.0381C274.61 80.7693 278.536 81.5004 282.433 81.186C286.33 80.8716 290.351 79.402 292.889 76.3824C296.442 72.2002 296.361 65.7149 293.576 61.0063Z" fill="#263238"/>
<path d="M297.299 81.632C297.353 80.8227 297.221 80.0118 296.913 79.2615C296.605 78.5112 296.129 77.8414 295.522 77.3036C294.899 76.7827 294.125 76.4737 293.314 76.4211C292.503 76.3685 291.697 76.5752 291.011 77.0111L289.702 78.1591C288.783 78.4267 287.971 78.974 287.377 79.7248C286.784 80.4756 286.439 81.3927 286.39 82.3485C286.376 83.3066 286.635 84.2489 287.138 85.0648C287.64 85.8806 288.365 86.5363 289.227 86.9548C290.099 87.3501 291.058 87.5147 292.012 87.4327C292.966 87.3508 293.882 87.0251 294.674 86.4868C295.454 85.9329 296.097 85.207 296.552 84.3652C297.007 83.5234 297.263 82.5883 297.299 81.632Z" fill="#263238"/>
<path d="M295.163 86.1942C295.498 85.8205 295.706 85.3491 295.755 84.8489C295.71 83.6271 295.32 82.443 294.629 81.4345C293.981 80.388 293.14 79.4748 292.15 78.7438C291.419 78.1735 290.849 77.9249 290.878 77.8665C291.388 77.9969 291.867 78.2254 292.289 78.5391C293.36 79.236 294.261 80.1627 294.929 81.2517C295.297 81.8493 295.589 82.4903 295.799 83.16C295.997 83.7097 296.067 84.2973 296.003 84.8782C295.953 85.2756 295.782 85.648 295.514 85.9456C295.323 86.1504 295.177 86.2089 295.163 86.1942Z" fill="#455A64"/>
<path d="M291.449 87.7589C291.814 86.2177 291.947 84.6307 291.844 83.0503C291.624 81.4849 291.163 79.9632 290.477 78.5391C290.81 78.8796 291.073 79.282 291.252 79.7235C292.269 81.8076 292.527 84.1812 291.983 86.4355C291.888 86.9057 291.707 87.3543 291.449 87.7589Z" fill="#455A64"/>
<path d="M268.41 94.7413C268.834 92.2773 269.778 86.9911 269.778 87.0058C269.778 87.0204 264.126 85.4923 263.665 77.8883C263.431 74.1083 264.213 68.0178 265.01 63.0533C265.742 58.586 270.465 53.0731 275.978 53.8993L278.471 53.9871L287.296 59.1563C287.951 59.2878 288.531 59.6627 288.921 60.2054C289.31 60.7482 289.479 61.4184 289.394 62.0809L284.561 94.0248L270.882 120.792L267.789 101.782L268.41 94.7413Z" fill="#FFBE9D"/>
<path d="M267.555 68.5078C267.53 68.7572 267.603 69.0065 267.758 69.203C267.914 69.3995 268.14 69.5277 268.388 69.5607C268.509 69.5826 268.634 69.58 268.754 69.5531C268.874 69.5261 268.987 69.4754 269.088 69.4038C269.188 69.3322 269.273 69.2413 269.337 69.1364C269.402 69.0315 269.444 68.9147 269.463 68.793C269.488 68.5428 269.415 68.2926 269.26 68.0949C269.104 67.8972 268.878 67.7675 268.629 67.7328C268.508 67.7109 268.383 67.7138 268.262 67.7412C268.142 67.7686 268.028 67.8199 267.928 67.8923C267.827 67.9646 267.743 68.0564 267.678 68.1621C267.614 68.2679 267.572 68.3854 267.555 68.5078Z" fill="#263238"/>
<path d="M266.414 66.0876C266.524 66.2265 267.306 65.7586 268.337 65.861C269.368 65.9633 270.077 66.5556 270.201 66.4386C270.326 66.3216 270.165 66.1461 269.858 65.8756C269.445 65.5254 268.934 65.3109 268.395 65.2614C267.858 65.2066 267.318 65.3244 266.853 65.5978C266.494 65.8098 266.363 66.0291 266.414 66.0876Z" fill="#263238"/>
<path d="M271.708 74.8396C271.179 74.6149 270.624 74.4577 270.056 74.3716C269.793 74.3205 269.552 74.2473 269.522 74.0572C269.532 73.7934 269.621 73.5386 269.778 73.3261C270.085 72.7119 270.407 72.0612 270.751 71.3886C272.111 68.6321 273.127 66.3509 273.01 66.2705C271.994 67.8303 271.104 69.4683 270.348 71.1692L269.405 73.1141C269.207 73.4162 269.121 73.7787 269.164 74.1377C269.194 74.2351 269.246 74.3245 269.316 74.3992C269.386 74.4739 269.471 74.5319 269.566 74.569C269.708 74.6207 269.855 74.6551 270.005 74.6714C270.563 74.8009 271.136 74.8574 271.708 74.8396Z" fill="#263238"/>
<path d="M269.778 87.0058C273.303 87.3958 276.866 86.801 280.073 85.2876C280.073 85.2876 276.9 90.2155 269.464 88.7898L269.778 87.0058Z" fill="#EB996E"/>
<path d="M267.226 62.4393C267.386 62.6952 268.125 62.5197 268.98 62.5928C269.836 62.666 270.545 62.8999 270.735 62.6733C270.823 62.5636 270.735 62.315 270.435 62.0591C270.034 61.7531 269.552 61.5725 269.048 61.54C268.545 61.5075 268.043 61.6245 267.606 61.8763C267.321 62.0884 267.16 62.3223 267.226 62.4393Z" fill="#263238"/>
<path d="M279.379 69.261C279.347 69.5108 279.22 69.7385 279.023 69.8955C278.826 70.0526 278.576 70.1266 278.326 70.1018C278.203 70.0944 278.083 70.0627 277.973 70.0086C277.862 69.9544 277.764 69.8789 277.683 69.7864C277.602 69.6939 277.54 69.5863 277.501 69.4697C277.462 69.3532 277.447 69.23 277.456 69.1075C277.485 68.8569 277.612 68.628 277.809 68.4706C278.006 68.3132 278.258 68.2399 278.508 68.2666C278.631 68.2741 278.751 68.3057 278.861 68.3599C278.972 68.414 279.07 68.4895 279.151 68.582C279.232 68.6745 279.294 68.7822 279.333 68.8987C279.372 69.0153 279.387 69.1384 279.379 69.261Z" fill="#263238"/>
<path d="M280.103 66.9503C279.964 67.06 279.313 66.4239 278.282 66.285C277.251 66.1461 276.432 66.5628 276.337 66.4239C276.242 66.285 276.44 66.1534 276.798 65.956C277.287 65.7067 277.841 65.6148 278.384 65.6928C278.919 65.7649 279.418 66.0027 279.81 66.3727C280.088 66.6579 280.168 66.8992 280.103 66.9503Z" fill="#263238"/>
<path d="M279.947 63.4264C279.735 63.6311 279.055 63.2947 278.207 63.1704C277.359 63.0462 276.606 63.112 276.474 62.8487C276.416 62.7171 276.562 62.4978 276.906 62.3223C277.361 62.105 277.873 62.0384 278.368 62.1322C278.869 62.2052 279.334 62.4327 279.699 62.7829C279.969 63.0681 280.042 63.3532 279.947 63.4264Z" fill="#263238"/>
<path d="M287.792 72.5512L286.33 73.6845C281.585 67.5209 272.76 52.5543 273.243 53.439C275.91 52.8829 278.675 53.001 281.285 53.7826C285.307 55.1206 292.83 58.3815 291.967 63.2364C291.105 68.0912 287.792 72.5512 287.792 72.5512Z" fill="#263238"/>
<path d="M290.893 77.3255C290.915 76.9286 290.959 76.5332 291.024 76.1411C291.139 75.0701 291.158 73.9911 291.083 72.9167C290.784 69.3649 289.625 65.9394 287.705 62.9365C285.753 59.9569 283.359 57.2918 280.605 55.0328C279.552 54.1554 278.682 53.4755 278.068 53.0075C277.745 52.782 277.435 52.5379 277.14 52.2764C277.14 52.2764 277.242 52.2764 277.41 52.4226C277.578 52.5688 277.834 52.6931 278.141 52.9125C278.777 53.3438 279.677 53.9946 280.752 54.8573C283.585 57.0779 286.033 59.7508 287.997 62.7684C289.949 65.814 291.094 69.3064 291.324 72.9167C291.381 74.0066 291.325 75.0994 291.156 76.1776C291.105 76.5578 291.017 76.843 290.98 77.0477C290.966 77.1443 290.936 77.2381 290.893 77.3255Z" fill="#455A64"/>
<path d="M280.38 52.4443C280.478 52.4822 280.571 52.5313 280.658 52.5906C280.841 52.6929 281.096 52.8465 281.425 53.0585C282.076 53.4826 283.012 54.1187 284.116 54.9814C285.403 55.9948 286.631 57.0811 287.794 58.235C289.27 59.6045 290.574 61.1488 291.676 62.834C292.236 63.7258 292.672 64.6901 292.97 65.7001C293.241 66.6513 293.379 67.6355 293.38 68.6247C293.371 70.2721 293.125 71.9098 292.649 73.4868C292.246 74.8321 291.837 75.885 291.545 76.6088C291.398 76.9671 291.274 77.2449 291.194 77.435C291.153 77.5316 291.104 77.6246 291.047 77.7128C291.15 77.3032 291.284 76.9023 291.449 76.5138C291.698 75.7826 292.071 74.7151 292.437 73.3771C292.881 71.8195 293.107 70.2078 293.109 68.5881C293.093 67.6381 292.953 66.6942 292.692 65.7805C292.397 64.8018 291.972 63.8673 291.428 63.0021C290.337 61.3445 289.062 59.8163 287.626 58.4471C286.463 57.299 285.243 56.2107 283.97 55.1861C282.895 54.3088 281.981 53.6434 281.352 53.1901C281.011 52.9654 280.686 52.7162 280.38 52.4443Z" fill="#455A64"/>
<path d="M287.903 72.6899C287.692 72.465 287.503 72.2201 287.34 71.9588L285.878 69.8677C284.686 68.0983 283.055 65.6343 281.279 62.8999C279.502 60.1654 277.901 57.6868 276.76 55.8735L275.422 53.7239C275.25 53.466 275.098 53.1946 274.969 52.9124C275.181 53.1358 275.37 53.3809 275.532 53.6435L276.994 55.7346C278.186 57.504 279.816 59.9679 281.6 62.7024C283.384 65.4369 284.978 67.9228 286.119 69.7288L287.457 71.8857C287.633 72.1378 287.782 72.4073 287.903 72.6899Z" fill="#455A64"/>
<path d="M286.397 74.5254C286.455 73.9697 287.23 72.7121 287.786 72.6829C289.248 72.5951 291.924 72.968 291.581 76.7115C291.12 81.8295 286.09 80.3014 286.09 80.1552C286.09 80.009 286.207 76.4483 286.397 74.5254Z" fill="#FFBE9D"/>
<path d="M287.5 78.232C287.5 78.232 287.581 78.3052 287.727 78.3856C287.828 78.4411 287.938 78.4761 288.052 78.4887C288.167 78.5012 288.282 78.491 288.392 78.4587C288.742 78.2812 289.038 78.0133 289.248 77.6828C289.459 77.3524 289.578 76.9714 289.591 76.5796C289.641 76.1409 289.593 75.6966 289.453 75.2782C289.419 75.1161 289.346 74.9648 289.24 74.8373C289.134 74.7099 288.999 74.6103 288.846 74.547C288.745 74.5131 288.637 74.5141 288.537 74.55C288.437 74.5858 288.353 74.6544 288.297 74.7445C288.217 74.8834 288.239 74.9857 288.217 74.993C288.195 75.0004 288.115 74.898 288.173 74.6933C288.21 74.5695 288.291 74.4631 288.4 74.3935C288.474 74.3459 288.556 74.3136 288.643 74.2985C288.73 74.2835 288.818 74.2859 288.904 74.3058C289.112 74.3646 289.3 74.4764 289.452 74.6302C289.603 74.784 289.712 74.9746 289.767 75.1831C289.949 75.6476 290.01 76.151 289.942 76.6454C289.818 77.6764 289.211 78.5903 288.48 78.7365C288.339 78.7649 288.194 78.7612 288.055 78.7258C287.915 78.6904 287.786 78.6241 287.676 78.5318C287.5 78.3563 287.486 78.2394 287.5 78.232Z" fill="#EB996E"/>
<path d="M298.404 263.747C298.301 264.551 296.32 287.034 296.32 287.034H286.018L284.212 263.842L298.404 263.747Z" fill="#FFBE9D"/>
<path d="M285.987 283.685C285.987 283.685 293.226 288.803 296.721 284.379L297.642 286.529L301.751 301.883C301.892 302.364 301.852 302.88 301.64 303.334C301.427 303.788 301.056 304.148 300.596 304.347C300.243 304.487 299.857 304.524 299.484 304.453C299.111 304.381 298.766 304.205 298.49 303.945C295.514 301.108 284.598 290.645 284.73 289.227L284.766 285.462C284.772 285.079 284.892 284.707 285.109 284.392C285.326 284.077 285.632 283.834 285.987 283.692V283.685Z" fill="#FF725E"/>
<path d="M300.223 304.442L284.723 287.911V288.73C284.705 289.068 284.761 289.407 284.887 289.721C285.014 290.036 285.207 290.319 285.454 290.551C286.712 292.24 290.185 296.027 298.425 303.938C298.661 304.165 298.949 304.329 299.264 304.417C299.579 304.505 299.911 304.514 300.231 304.442H300.223Z" fill="#263238"/>
<path d="M286.997 285.454C287.236 285.629 287.403 285.886 287.465 286.176C287.527 286.466 287.48 286.769 287.333 287.026C287.167 287.273 286.914 287.446 286.624 287.511C286.335 287.577 286.031 287.529 285.776 287.377C285.523 287.191 285.347 286.918 285.284 286.61C285.221 286.302 285.273 285.982 285.432 285.71C285.63 285.472 285.913 285.32 286.221 285.286C286.529 285.252 286.839 285.339 287.084 285.528" fill="white"/>
<path d="M295.769 295.976C296.233 295.365 296.809 294.849 297.466 294.455C298.164 294.177 298.907 294.028 299.659 294.016C299.659 293.972 299.432 293.819 298.979 293.76C298.381 293.692 297.776 293.801 297.239 294.075C296.696 294.336 296.243 294.754 295.938 295.274C295.747 295.668 295.718 295.961 295.769 295.976Z" fill="#263238"/>
<path d="M297.159 298.571C297.714 298.254 298.288 297.97 298.878 297.723C299.504 297.604 300.136 297.521 300.771 297.474C300.83 297.372 299.894 296.97 298.753 297.321C297.613 297.672 297.057 298.52 297.159 298.571Z" fill="#263238"/>
<path d="M293.182 292.649C293.998 292.1 294.853 291.611 295.741 291.186C296.682 290.884 297.645 290.657 298.621 290.506C298.621 290.397 297.203 290.134 295.58 290.792C294.585 291.106 293.735 291.764 293.182 292.649Z" fill="#263238"/>
<path d="M292.83 287.977C292.889 288.094 293.956 287.641 295.353 287.589C296.749 287.538 297.853 287.86 297.897 287.743C297.11 287.319 296.224 287.117 295.331 287.158C294.439 287.199 293.574 287.482 292.83 287.977Z" fill="#263238"/>
<path d="M296.151 287.546C296.165 287.297 296.128 287.048 296.041 286.814C295.849 286.167 295.531 285.563 295.105 285.038C294.829 284.623 294.423 284.312 293.95 284.153C293.79 284.115 293.623 284.127 293.47 284.187C293.317 284.247 293.186 284.353 293.095 284.489C292.938 284.769 292.889 285.097 292.956 285.411C293.12 286.048 293.503 286.608 294.037 286.993C294.571 287.378 295.224 287.563 295.88 287.516C296.524 287.461 297.138 287.217 297.643 286.813C298.148 286.41 298.522 285.866 298.717 285.25C298.766 285.094 298.779 284.93 298.758 284.768C298.737 284.607 298.68 284.452 298.593 284.314C298.498 284.178 298.359 284.078 298.199 284.032C298.04 283.985 297.869 283.995 297.716 284.058C297.265 284.249 296.872 284.554 296.575 284.943C296.137 285.455 295.791 286.038 295.551 286.668C295.445 286.897 295.388 287.147 295.383 287.399C295.743 286.588 296.221 285.834 296.802 285.162C297.074 284.841 297.42 284.59 297.811 284.431C297.895 284.398 297.988 284.394 298.075 284.419C298.162 284.445 298.239 284.497 298.293 284.57C298.346 284.664 298.377 284.768 298.385 284.876C298.392 284.983 298.376 285.091 298.337 285.191C298.143 285.712 297.805 286.166 297.362 286.502C296.919 286.837 296.39 287.039 295.837 287.085C295.284 287.117 294.736 286.961 294.284 286.643C293.831 286.324 293.499 285.861 293.343 285.33C293.29 285.114 293.316 284.886 293.416 284.687C293.464 284.609 293.534 284.547 293.618 284.512C293.702 284.476 293.796 284.469 293.884 284.489C294.28 284.628 294.624 284.882 294.871 285.22C295.431 285.914 295.864 286.701 296.151 287.546Z" fill="#263238"/>
<path d="M241.833 256.428L243.609 285.132L256.083 285.045L258.188 255.221L241.833 256.428Z" fill="#FFBE9D"/>
<path d="M243.383 281.667V282.5C243.383 282.5 229.301 288.094 229.125 290.74H257.055L256.661 281.448C254.593 282.435 252.337 282.966 250.046 283.004C247.754 283.042 245.482 282.586 243.383 281.667Z" fill="#FF725E"/>
<path d="M253.838 284.409C254.107 284.49 254.336 284.668 254.482 284.908C254.628 285.149 254.68 285.434 254.628 285.71C254.557 285.981 254.385 286.215 254.147 286.363C253.909 286.512 253.623 286.563 253.348 286.507C253.063 286.42 252.82 286.231 252.667 285.976C252.513 285.721 252.459 285.418 252.515 285.125C252.619 284.85 252.825 284.625 253.091 284.499C253.357 284.372 253.661 284.353 253.941 284.445" fill="white"/>
<path d="M257.086 290.741L256.991 288.511L230.26 289.359C230.26 289.359 229.017 289.9 229.156 290.77L257.086 290.741Z" fill="#263238"/>
<path d="M243.273 282.581C243.273 282.712 243.961 282.771 244.633 283.21C245.306 283.648 245.664 284.226 245.788 284.167C245.913 284.109 245.708 283.327 244.889 282.815C244.07 282.303 243.244 282.449 243.273 282.581Z" fill="#263238"/>
<path d="M240.349 283.795C240.349 283.926 240.904 284.153 241.372 284.731C241.84 285.308 241.972 285.915 242.103 285.915C242.235 285.915 242.33 285.133 241.738 284.453C241.146 283.773 240.349 283.663 240.349 283.795Z" fill="#263238"/>
<path d="M238.689 287.297C238.814 287.297 239.004 286.646 238.689 285.901C238.375 285.155 237.695 284.855 237.637 284.972C237.578 285.089 237.98 285.484 238.258 286.098C238.536 286.712 238.551 287.29 238.689 287.297Z" fill="#263238"/>
<path d="M258.189 167.593C257.816 168.668 243.025 218.773 243.025 218.773L240.48 278.238L258.891 279.298L265.471 219.929L282.288 182.794L274.896 152.583H259.863L258.189 167.593Z" fill="#263238"/>
<path d="M271.291 152.597C271.554 153.328 280.993 187.327 280.993 187.327L282.302 238.025V279.971H299.082L306.898 187.466C306.898 187.466 308.28 170.649 305.918 164.998C303.557 159.346 293.993 149.417 293.993 149.417L271.291 152.597Z" fill="#263238"/>
<path d="M272.644 156.078C272.801 156.462 272.928 156.858 273.024 157.262C273.266 158.088 273.587 159.185 273.967 160.508C274.816 163.309 275.942 167.089 277.192 171.205C278.442 175.321 279.444 179.248 280.029 182.019C280.336 183.423 280.533 184.563 280.65 185.353C280.733 185.76 280.78 186.173 280.789 186.588C280.665 186.194 280.569 185.791 280.504 185.382C280.343 184.6 280.102 183.466 279.773 182.085C279.122 179.299 278.069 175.504 276.848 171.315C275.627 167.125 274.472 163.345 273.733 160.582C273.361 159.2 273.075 158.081 272.9 157.299C272.779 156.9 272.694 156.491 272.644 156.078Z" fill="#455A64"/>
<path d="M278.435 156.077C278.019 156.211 277.652 156.465 277.382 156.809C277.252 156.994 277.17 157.208 277.145 157.433C277.119 157.658 277.15 157.886 277.235 158.095C277.337 158.348 277.507 158.568 277.727 158.73C277.946 158.891 278.207 158.988 278.478 159.009C278.751 159.013 279.02 158.941 279.254 158.8C279.488 158.659 279.678 158.455 279.802 158.212C279.909 158.013 279.965 157.791 279.965 157.565C279.965 157.339 279.909 157.117 279.802 156.918C279.568 156.543 279.227 156.248 278.822 156.07C278.822 156.07 278.968 156.034 279.21 156.114C279.55 156.24 279.839 156.477 280.028 156.787C280.183 157.017 280.275 157.284 280.294 157.562C280.314 157.839 280.26 158.116 280.138 158.366C279.997 158.683 279.764 158.95 279.468 159.132C279.173 159.314 278.83 159.403 278.483 159.387C278.137 159.372 277.803 159.252 277.526 159.043C277.248 158.835 277.04 158.548 276.928 158.22C276.832 157.959 276.805 157.678 276.85 157.404C276.895 157.129 277.01 156.871 277.184 156.655C277.405 156.364 277.716 156.156 278.069 156.063C278.288 156.026 278.435 156.055 278.435 156.077Z" fill="#455A64"/>
<path d="M293.328 180.498C293.337 180.583 293.337 180.669 293.328 180.754C293.328 180.944 293.328 181.185 293.328 181.485C293.328 182.172 293.328 183.137 293.328 184.366C293.328 186.873 293.328 190.493 293.247 194.967C293.116 203.917 292.714 216.266 292.187 229.909C291.661 243.552 291.222 255.909 291.017 264.85C290.915 269.325 290.849 272.944 290.813 275.445C290.813 276.673 290.813 277.638 290.769 278.326C290.769 278.633 290.769 278.876 290.769 279.057C290.801 279.062 290.831 279.08 290.851 279.106C290.871 279.132 290.881 279.165 290.878 279.197C290.875 279.23 290.86 279.261 290.836 279.283C290.812 279.306 290.78 279.318 290.747 279.318C290.714 279.318 290.682 279.306 290.658 279.283C290.633 279.261 290.618 279.23 290.616 279.197C290.613 279.165 290.623 279.132 290.643 279.106C290.663 279.08 290.692 279.062 290.725 279.057C290.725 278.867 290.725 278.618 290.725 278.326C290.725 277.638 290.725 276.673 290.725 275.445C290.725 272.937 290.725 269.318 290.805 264.843C290.944 255.894 291.339 243.537 291.866 229.894C292.392 216.251 292.831 203.902 293.035 194.96C293.138 190.485 293.211 186.866 293.24 184.366C293.24 183.137 293.277 182.172 293.284 181.485C293.284 181.17 293.284 180.929 293.284 180.754C293.287 180.667 293.302 180.581 293.328 180.498Z" fill="#455A64"/>
<path d="M267.439 174.393C267.42 174.48 267.393 174.566 267.358 174.649L267.073 175.38C266.803 176.06 266.422 177.025 265.94 178.261C264.938 180.776 263.498 184.38 261.714 188.826C259.93 193.271 257.897 198.638 255.952 204.677C253.731 211.188 252.175 217.908 251.31 224.732C250.922 228.388 250.754 231.956 250.535 235.4C250.315 238.844 250.169 242.178 249.994 245.351C249.665 251.69 249.372 257.4 249.123 262.211C248.875 267.022 248.612 270.89 248.392 273.566C248.283 274.889 248.202 275.92 248.144 276.651C248.107 276.988 248.085 277.251 248.063 277.448C248.057 277.542 248.045 277.634 248.027 277.726C248.017 277.634 248.017 277.541 248.027 277.448C248.027 277.251 248.027 276.98 248.063 276.644C248.107 275.913 248.166 274.882 248.246 273.559C248.4 270.875 248.604 266.978 248.831 262.196C249.058 257.415 249.328 251.675 249.621 245.336C249.789 242.163 249.957 238.829 250.14 235.378C250.323 231.927 250.52 228.352 250.907 224.696C251.79 217.85 253.37 211.113 255.623 204.589C257.59 198.543 259.689 193.213 261.473 188.753C263.257 184.293 264.777 180.71 265.808 178.231C266.32 177.003 266.722 176.038 267.007 175.373L267.329 174.641C267.357 174.555 267.393 174.472 267.439 174.393Z" fill="#455A64"/>
<path d="M292.751 92.7454C292.751 92.7454 302.731 94.6098 304.925 96.4377C307.118 98.2655 327.108 124.338 327.525 129.603C327.941 134.867 325.507 136.797 324.125 138.047C322.743 139.298 298.849 155.478 298.849 155.478L291.501 143.29L312.149 130.955L302.183 113.912L292.751 92.7454Z" fill="#FF725E"/>
<path d="M318.816 126.32C317.419 126.53 316.073 126.996 314.845 127.694C313.685 128.497 312.679 129.502 311.877 130.663C311.97 130.241 312.157 129.846 312.425 129.508C313.009 128.648 313.765 127.92 314.647 127.369C315.528 126.819 316.515 126.459 317.543 126.312C317.962 126.217 318.398 126.219 318.816 126.32Z" fill="#FF725E"/>
<path d="M268.564 94.0101L271.211 118.021L284.715 90.9685L293.423 99.8154C293.423 99.8154 298.768 131.438 298.848 131.664C298.929 131.891 295.193 149.753 295.193 149.753L270.443 154.542L262.891 152.619L261.699 124.492L261.172 102.952L268.564 94.0101Z" fill="white"/>
<path d="M265.354 95.0339L258.928 96.4962C258.069 96.6947 257.271 97.0986 256.603 97.6734C251.119 102.367 239.26 112.296 239.26 112.296L241.453 94.6756L230.033 93.6155C230.033 93.6155 226.611 115.828 226.962 121.67C227.379 128.455 233.462 130.122 242.316 126.473C247.788 124.277 253.085 121.667 258.16 118.665L265.354 95.0339Z" fill="#FF725E"/>
<path d="M301.196 114.007L300.019 135.064L301.203 139.159C301.203 139.159 312.287 160.084 314.115 173.94L300.399 176.133C300.399 176.133 296.655 158.256 294.023 149.395C291.391 140.533 283.604 136.804 280.972 127.694C279.387 122.49 278.823 117.028 279.312 111.609C279.312 111.053 284.716 90.9614 284.716 90.9614L285.681 86.7646L290.535 91.3782L303.002 95.5238L301.196 114.007Z" fill="#FF725E"/>
<g opacity="0.3">
<path opacity="0.3" d="M307.732 153.168C305.464 154.919 303.094 156.533 300.632 158C300.486 158.074 300.296 158.154 300.084 158.234C299.59 158.416 299.047 158.414 298.555 158.229C298.062 158.044 297.653 157.688 297.401 157.225C297.108 156.692 296.808 156.129 296.611 155.705C296.107 154.615 295.558 153.306 295.068 152.173L296.611 151.8L298.848 155.507L305.297 151.12L306.525 150.28L307.732 153.168Z" fill="black"/>
</g>
<path d="M268.681 91.6414L265.683 94.778L258.496 97.3004C258.496 97.3004 256.741 118.504 257.691 123.022C258.613 127.365 260.368 132.644 260.514 138.881C260.66 145.118 253.539 178.078 253.539 178.078L262.152 181.346C262.152 181.346 266.538 143.187 265.683 134.867C264.828 126.546 267.05 109.774 267.05 109.774L268.681 91.6414Z" fill="#FF725E"/>
<path d="M284.986 132.081C284.871 131.977 284.766 131.862 284.672 131.737C284.393 131.384 284.148 131.004 283.941 130.604C283.222 129.106 282.84 127.469 282.822 125.808C282.795 123.361 282.966 120.916 283.334 118.496C283.734 115.532 284.342 112.601 285.155 109.722C286.534 104.774 288.497 100.008 291.004 95.5236L291.121 95.7356L288.072 95.6406H287.852L287.984 95.4651L289.987 92.7745L290.528 92.0433C290.586 91.9589 290.655 91.8827 290.733 91.8167C290.694 91.9106 290.642 91.9991 290.58 92.0799L290.082 92.811L288.167 95.5674L288.079 95.392L291.128 95.4285H291.362L291.245 95.6332C288.81 100.126 286.882 104.876 285.498 109.796C284.694 112.655 284.078 115.564 283.656 118.504C283.283 120.899 283.087 123.318 283.071 125.742C283.069 127.372 283.402 128.985 284.051 130.48C284.333 131.03 284.645 131.565 284.986 132.081Z" fill="#263238"/>
<path d="M293.423 112.64C292.282 113.024 291.094 113.25 289.892 113.313C288.703 113.493 287.495 113.508 286.302 113.356C287.475 113.133 288.662 112.991 289.855 112.932C291.036 112.747 292.228 112.649 293.423 112.64Z" fill="#263238"/>
<path d="M302.167 107.756C302.147 108.116 302.096 108.473 302.013 108.823C301.918 109.511 301.794 110.505 301.677 111.748C301.443 114.219 301.209 117.634 300.946 121.406L300.361 131.08C300.273 132.315 300.2 133.317 300.134 134.004C300.122 134.364 300.073 134.722 299.988 135.072C299.96 134.714 299.96 134.354 299.988 133.997C299.988 133.229 300.047 132.242 300.091 131.072C300.186 128.594 300.339 125.172 300.566 121.392C300.792 117.612 301.078 114.197 301.385 111.726C301.531 110.498 301.699 109.533 301.838 108.801C301.914 108.443 302.024 108.093 302.167 107.756Z" fill="#263238"/>
<path d="M318.128 131.657C318.091 131.767 316.746 131.335 315.02 131.211C313.295 131.087 311.906 131.306 311.884 131.211C312.894 130.836 313.981 130.713 315.05 130.853C316.125 130.87 317.181 131.145 318.128 131.657Z" fill="#263238"/>
<path d="M239.332 111.887C239.114 112.835 238.775 113.752 238.323 114.614C237.987 115.528 237.533 116.393 236.971 117.188C237.184 116.238 237.524 115.321 237.98 114.461C238.32 113.549 238.774 112.684 239.332 111.887Z" fill="#263238"/>
<path d="M257.26 104.861C257.362 104.861 257.53 108.999 257.625 114.11C257.72 119.22 257.72 123.366 257.625 123.366C257.53 123.366 257.355 119.228 257.252 114.117C257.15 109.006 257.157 104.868 257.26 104.861Z" fill="#263238"/>
<path d="M265.786 122.247C265.72 121.895 265.688 121.538 265.691 121.18C265.691 120.449 265.632 119.44 265.589 118.255C265.515 115.791 265.435 112.406 265.377 108.633C265.318 104.861 265.289 101.468 265.281 99.004C265.281 97.8269 265.281 96.8471 265.281 96.0794C265.267 95.7226 265.287 95.3651 265.34 95.012C265.406 95.3639 265.438 95.7214 265.435 96.0794C265.435 96.8106 265.493 97.8196 265.537 99.004C265.61 101.468 265.684 104.853 265.742 108.626C265.801 112.399 265.837 115.784 265.844 118.248C265.844 119.425 265.844 120.441 265.844 121.172C265.855 121.532 265.835 121.891 265.786 122.247Z" fill="#263238"/>
<path d="M319.913 141.074C319.79 141.188 319.658 141.29 319.518 141.381L318.348 142.222L313.961 145.3L298.958 155.661L298.797 155.778L298.695 155.609L295.404 150.155L291.354 143.414L291.259 143.253L291.412 143.158L306.225 134.384L310.568 131.854L311.738 131.189C311.871 131.107 312.01 131.036 312.155 130.977C312.035 131.08 311.906 131.171 311.768 131.248L310.634 131.979L306.35 134.596L291.595 143.48L291.661 143.224C292.94 145.351 294.315 147.611 295.726 149.958L299.009 155.412L298.738 155.354C304.748 151.274 310.02 147.691 313.815 145.117L318.275 142.134L319.481 141.345C319.618 141.244 319.762 141.153 319.913 141.074Z" fill="#263238"/>
<g opacity="0.3">
<path opacity="0.3" d="M283.984 130.517C283.76 127.372 284.059 124.212 284.868 121.165C286.758 112.618 289.865 104.386 294.096 96.723C293.604 96.452 293.04 96.3402 292.482 96.403C291.925 96.4659 291.4 96.7003 290.981 97.0739C290.16 97.8424 289.525 98.7875 289.124 99.8377C285.896 106.731 283.857 114.119 283.092 121.692C282.903 123.146 282.866 124.616 282.982 126.079C283.128 127.614 283.128 129.223 284.079 130.429" fill="black"/>
</g>
<g opacity="0.3">
<path opacity="0.3" d="M257.239 106.396C254.965 110.344 255.264 115.097 257.436 119.103C257.436 114.716 257.436 110.878 257.173 106.454" fill="black"/>
</g>
<path d="M274.918 77.106C274.899 76.9761 274.852 76.8519 274.78 76.7421C274.708 76.6323 274.613 76.5394 274.502 76.4699C274.348 76.4086 274.183 76.3835 274.019 76.3967C273.068 76.4136 272.122 76.5487 271.204 76.7989L271.153 76.9451C271.197 77.3548 271.283 77.759 271.409 78.1515C271.532 78.547 271.766 78.8994 272.081 79.1678C272.389 79.3952 272.762 79.5179 273.145 79.5179C273.528 79.5179 273.901 79.3952 274.209 79.1678C274.51 78.9259 274.736 78.6039 274.861 78.2392C274.986 77.8744 275.006 77.4815 274.918 77.106Z" fill="#EB996E"/>
<path d="M272.096 79.3433C272.492 79.3785 272.892 79.3539 273.281 79.2702C273.684 79.1471 274.032 78.8889 274.268 78.539C274.408 78.334 274.504 78.1019 274.549 77.8576C274.594 77.6134 274.588 77.3623 274.531 77.1206C274.487 76.8925 274.356 76.6905 274.165 76.5576C273.952 76.4873 273.721 76.4873 273.507 76.5576L272.191 76.8062C271.786 76.9142 271.367 76.9611 270.948 76.9451C271.32 76.7517 271.72 76.6161 272.133 76.543L273.434 76.214C273.725 76.109 274.043 76.109 274.333 76.214C274.477 76.3006 274.602 76.4162 274.699 76.5534C274.795 76.6906 274.863 76.8464 274.896 77.0109C274.968 77.305 274.975 77.6113 274.915 77.9082C274.856 78.2051 274.732 78.4853 274.553 78.7291C274.252 79.1106 273.824 79.3703 273.346 79.4603C273.142 79.5349 272.924 79.5631 272.708 79.5428C272.492 79.5226 272.283 79.4544 272.096 79.3433Z" fill="#263238"/>
<path d="M288.049 80.0745C287.946 79.8031 287.754 79.5743 287.505 79.4245C287.255 79.2748 286.963 79.2127 286.675 79.2483C286.512 79.2669 286.354 79.321 286.214 79.4069C286.074 79.4928 285.954 79.6084 285.863 79.7455C285.719 79.9839 285.655 80.2621 285.68 80.5396C285.705 80.8171 285.818 81.0793 286.002 81.2882C286.196 81.4878 286.449 81.6182 286.724 81.6591C286.999 81.7001 287.28 81.6494 287.523 81.5149C287.76 81.3691 287.941 81.1476 288.037 80.8862C288.132 80.6248 288.137 80.3388 288.049 80.0745Z" fill="#FAFAFA"/>
<path d="M291.821 144.043L283.361 136.549L276.218 137.163C276.218 137.163 276.467 138.333 277.454 138.516C278.441 138.698 282.009 138.764 282.009 138.764L283.683 140.424L279.421 140L274.003 143.195C274.003 143.195 273.878 144.182 275.297 143.926C276.705 143.583 278.083 143.131 279.421 142.573L282.572 142.756L279.135 143.253L274.683 146.39C274.979 146.698 275.353 146.919 275.766 147.028C276.178 147.138 276.613 147.132 277.022 147.012C278.441 146.58 280.159 145.9 280.159 145.9L284.041 145.527L280.159 146.514L277.271 150.09C277.544 150.28 277.87 150.382 278.203 150.382C278.537 150.382 278.862 150.28 279.135 150.09C279.707 149.688 280.256 149.256 280.781 148.796L285.087 148.605C285.087 148.605 289.847 152.056 291.499 152.429C293.152 152.802 296.617 151.793 296.617 151.793L291.821 144.043Z" fill="#FFBE9D"/>
<path d="M499.505 179.306H368.417V252.604H499.505V179.306Z" fill="#FAFAFA"/>
<path d="M499.504 252.604C499.504 252.604 499.504 252.151 499.504 251.288C499.504 250.425 499.504 249.138 499.504 247.464C499.504 244.101 499.504 239.158 499.504 232.804C499.504 220.119 499.46 201.811 499.424 179.306L499.57 179.452L368.489 179.496L368.68 179.306C368.68 205.225 368.68 230.019 368.68 252.604L368.504 252.428L462.822 252.516L489.875 252.56H497.099H498.963H499.599H498.985H497.135H489.955L462.903 252.611L368.504 252.699H368.321V252.516C368.321 229.931 368.321 205.138 368.321 179.218V179.028H368.519L499.599 179.072H499.745V179.218C499.745 201.76 499.687 220.097 499.665 232.812C499.665 239.143 499.665 244.079 499.665 247.435C499.665 249.102 499.665 250.359 499.665 251.237C499.665 252.114 499.504 252.604 499.504 252.604Z" fill="#263238"/>
<path d="M402.971 196.773H384.437V215.308H402.971V196.773Z" fill="#455A64"/>
<path d="M428.422 199.347C428.422 199.457 424.094 199.544 418.763 199.544C413.433 199.544 409.098 199.457 409.098 199.347C409.098 199.237 413.426 199.157 418.763 199.157C424.101 199.157 428.422 199.274 428.422 199.347Z" fill="#FF725E"/>
<path d="M490.124 206.044C490.124 206.146 471.976 206.234 449.603 206.234C427.23 206.234 409.083 206.146 409.083 206.044C409.083 205.942 427.223 205.854 449.603 205.854C471.984 205.854 490.124 205.927 490.124 206.044Z" fill="#263238"/>
<path d="M462.875 213.517C462.875 213.619 450.95 213.707 436.253 213.707C421.557 213.707 409.625 213.619 409.625 213.517C409.625 213.414 421.543 213.327 436.253 213.327C450.964 213.327 462.875 213.414 462.875 213.517Z" fill="#263238"/>
<path d="M480.101 225.712H390.557C385.812 225.712 381.966 229.558 381.966 234.303C381.966 239.048 385.812 242.894 390.557 242.894H480.101C484.845 242.894 488.692 239.048 488.692 234.303C488.692 229.558 484.845 225.712 480.101 225.712Z" fill="#FF725E"/>
<path d="M418.866 235.502H416.673L416.256 236.518H415.13L417.243 231.788H418.325L420.438 236.518H419.29L418.866 235.502ZM418.522 234.676L417.791 232.863L417.06 234.676H418.522Z" fill="white"/>
<path d="M425.051 233.506C425.051 234.559 424.261 235.217 422.996 235.217H422.046V236.518H420.949V231.788H422.996C424.239 231.788 425.051 232.439 425.051 233.506ZM423.947 233.506C423.947 232.987 423.603 232.68 422.938 232.68H422.046V234.325H422.938C423.589 234.325 423.925 234.018 423.925 233.506H423.947Z" fill="white"/>
<path d="M429.914 233.506C429.914 234.559 429.125 235.217 427.86 235.217H426.909V236.518H425.783V231.788H427.83C429.125 231.788 429.914 232.439 429.914 233.506ZM428.803 233.506C428.803 232.987 428.467 232.68 427.801 232.68H426.909V234.325H427.801C428.467 234.325 428.803 234.018 428.803 233.506Z" fill="white"/>
<path d="M430.696 231.788H431.786V235.626H434.162V236.518H430.696V231.788Z" fill="white"/>
<path d="M436.56 234.844V236.518H435.464V234.829L433.636 231.788H434.798L436.063 233.886L437.328 231.788H438.403L436.56 234.844Z" fill="white"/>
<path d="M445.114 231.788V236.518H444.214L441.867 233.645V236.518H440.785V231.788H441.692L444.061 234.661V231.788H445.114Z" fill="white"/>
<path d="M445.941 234.149C445.911 233.631 446.038 233.115 446.305 232.67C446.572 232.224 446.966 231.869 447.437 231.65C447.908 231.431 448.434 231.358 448.947 231.441C449.46 231.524 449.936 231.759 450.313 232.115C450.691 232.472 450.953 232.933 451.066 233.44C451.179 233.948 451.136 234.477 450.945 234.96C450.754 235.442 450.422 235.857 449.992 236.149C449.563 236.441 449.056 236.598 448.536 236.599C448.202 236.619 447.868 236.57 447.554 236.456C447.24 236.342 446.952 236.165 446.709 235.935C446.466 235.706 446.272 235.429 446.14 235.122C446.008 234.815 445.94 234.484 445.941 234.149ZM450.013 234.149C450.002 233.863 449.906 233.586 449.739 233.353C449.571 233.121 449.339 232.942 449.071 232.841C448.803 232.739 448.511 232.718 448.231 232.781C447.952 232.844 447.697 232.988 447.498 233.194C447.299 233.401 447.166 233.661 447.114 233.943C447.062 234.225 447.094 234.516 447.206 234.78C447.319 235.044 447.506 235.269 447.745 235.427C447.984 235.585 448.264 235.67 448.551 235.67C448.748 235.67 448.943 235.631 449.124 235.553C449.306 235.476 449.469 235.363 449.606 235.221C449.743 235.079 449.849 234.911 449.919 234.727C449.989 234.543 450.021 234.346 450.013 234.149Z" fill="white"/>
<path d="M458.948 231.788L457.398 236.518H456.221L455.182 233.316L454.108 236.518H452.938L451.373 231.788H452.506L453.581 235.115L454.692 231.788H455.709L456.791 235.137L457.888 231.788H458.948Z" fill="white"/>
<path d="M123.196 128.374H26.165V182.625H123.196V128.374Z" fill="#FAFAFA"/>
<path d="M123.197 182.633C123.197 182.633 123.197 182.296 123.197 181.653C123.197 181.009 123.197 180.059 123.197 178.816C123.197 176.323 123.197 172.667 123.16 167.966C123.16 158.57 123.109 145.03 123.08 128.374L123.226 128.52L26.2028 128.564L26.3929 128.374C26.3929 147.559 26.3929 165.911 26.3929 182.633L26.2174 182.457L95.9836 182.538L116.039 182.589H121.391H122.773H123.248H122.795H121.428H116.119L96.1079 182.633L26.2174 182.72H25.9907V182.545C25.9907 165.823 25.9907 147.45 25.9907 128.286V128.096H26.1881L123.212 128.147H123.358V128.286C123.358 144.978 123.299 158.556 123.277 167.966C123.277 172.652 123.277 176.301 123.241 178.787C123.241 180.015 123.241 180.98 123.241 181.594C123.241 182.209 123.197 182.633 123.197 182.633Z" fill="#263238"/>
<path d="M51.7417 141.308H38.0254V155.024H51.7417V141.308Z" fill="#455A64"/>
<path d="M70.5835 143.238C68.2049 143.427 65.8181 143.49 63.4329 143.428C61.0476 143.49 58.6608 143.427 56.2822 143.238C58.6606 143.046 61.0476 142.982 63.4329 143.048C65.8181 142.982 68.2052 143.046 70.5835 143.238Z" fill="#FF725E"/>
<path d="M116.258 148.166C116.258 148.276 102.835 148.357 86.2813 148.357C69.7281 148.357 56.3042 148.276 56.3042 148.166C56.3042 148.057 69.7281 147.976 86.2813 147.976C102.835 147.976 116.258 148.064 116.258 148.166Z" fill="#263238"/>
<path d="M96.0793 153.701C96.0793 153.804 87.2617 153.891 76.3749 153.891C65.4881 153.891 56.6704 153.804 56.6704 153.701C56.6704 153.599 65.4881 153.511 76.4114 153.511C87.3348 153.511 96.0793 153.592 96.0793 153.701Z" fill="#263238"/>
<path d="M108.83 162.723H42.5583C39.0452 162.723 36.1973 165.57 36.1973 169.081C36.1973 172.592 39.0452 175.438 42.5583 175.438H108.83C112.343 175.438 115.191 172.592 115.191 169.081C115.191 165.57 112.343 162.723 108.83 162.723Z" fill="#FF725E"/>
<path d="M63.5123 169.976H61.8818L61.5674 170.708H60.7412L62.2986 167.198H63.1321L64.704 170.708H63.8486L63.5123 169.976ZM63.2564 169.362L62.7007 168.017L62.145 169.362H63.2564Z" fill="white"/>
<path d="M68.0763 168.492C68.0763 169.275 67.4913 169.757 66.5555 169.757H65.8243V170.73H65.0347V167.22H66.5555C67.5206 167.22 68.0763 167.703 68.0763 168.492ZM67.2574 168.492C67.2574 168.105 67.0015 167.878 66.5262 167.878H65.8609V169.099H66.5262C67.0015 169.099 67.2574 168.873 67.2574 168.492Z" fill="white"/>
<path d="M71.687 168.492C71.687 169.275 71.1021 169.757 70.1663 169.757H69.4351V170.73H68.6235V167.22H70.137C71.1021 167.22 71.687 167.703 71.687 168.492ZM70.8682 168.492C70.8682 168.105 70.6196 167.878 70.137 167.878H69.479V169.099H70.137C70.6196 169.099 70.8682 168.873 70.8682 168.492Z" fill="white"/>
<path d="M72.2661 167.22H73.0777V170.101H74.8324V170.766H72.2661V167.22Z" fill="white"/>
<path d="M76.6085 169.487V170.73H75.797V169.472L74.4443 167.22H75.2998L76.243 168.778L77.1788 167.22H77.9758L76.6085 169.487Z" fill="white"/>
<path d="M82.9402 167.22V170.73H82.2749L80.5274 168.595V170.73H79.7305V167.22H80.3958L82.1433 169.37V167.242L82.9402 167.22Z" fill="white"/>
<path d="M83.5545 168.975C83.534 168.592 83.6287 168.213 83.8264 167.884C84.0241 167.556 84.3156 167.295 84.6633 167.134C85.0111 166.973 85.399 166.92 85.7771 166.982C86.1552 167.044 86.506 167.218 86.7842 167.481C87.0625 167.745 87.2553 168.086 87.3379 168.46C87.4205 168.834 87.3891 169.224 87.2476 169.58C87.1061 169.936 86.8611 170.242 86.5442 170.457C86.2274 170.672 85.8532 170.788 85.4701 170.788C85.2235 170.802 84.9767 170.766 84.7447 170.681C84.5128 170.596 84.3006 170.465 84.1213 170.295C83.9419 170.125 83.7991 169.92 83.7016 169.693C83.6042 169.466 83.5541 169.222 83.5545 168.975ZM86.5668 168.975C86.5625 168.759 86.4945 168.549 86.3714 168.372C86.2483 168.194 86.0756 168.057 85.8748 167.978C85.6741 167.898 85.4543 167.879 85.243 167.924C85.0317 167.969 84.8384 168.075 84.6872 168.229C84.536 168.383 84.4337 168.579 84.3931 168.791C84.3526 169.003 84.3755 169.222 84.4591 169.422C84.5428 169.621 84.6833 169.791 84.8631 169.91C85.043 170.03 85.2541 170.094 85.4701 170.094C85.6169 170.097 85.7627 170.07 85.8986 170.014C86.0345 169.959 86.1577 169.876 86.2604 169.772C86.3632 169.667 86.4434 169.542 86.4961 169.405C86.5488 169.268 86.5729 169.122 86.5668 168.975Z" fill="white"/>
<path d="M93.1826 167.22L92.0347 170.73H91.1646L90.3896 168.353L89.5927 170.73H88.7226L87.5674 167.22H88.4082L89.1978 169.684L90.024 167.22H90.7552L91.5595 169.706L92.3783 167.22H93.1826Z" fill="white"/>
<path d="M476.32 33.5952H369.864V93.1181H476.32V33.5952Z" fill="#FAFAFA"/>
<path d="M476.32 93.1182C476.32 93.1182 476.32 92.7526 476.32 92.0434C476.32 91.3342 476.32 90.2959 476.32 88.936C476.32 86.2015 476.32 82.1875 476.284 77.0329C476.284 66.731 476.24 51.8667 476.211 33.5953L476.357 33.7416L369.909 33.7854L370.099 33.5953C370.099 54.6451 370.099 74.7736 370.099 93.1182L369.923 92.9427L446.475 93.0231L468.475 93.0743H474.324H475.838H474.375H468.526L446.592 93.1255L369.865 93.3302H369.689V93.1547C369.689 74.8102 369.689 54.6817 369.689 33.6319V33.376H369.887L476.335 33.4198H476.481V33.5661C476.445 51.8448 476.423 66.7675 476.401 77.0914C476.401 82.2094 476.401 86.238 476.364 88.9652C476.364 90.3106 476.364 91.3415 476.364 92.0507C476.364 92.7599 476.32 93.1182 476.32 93.1182Z" fill="#263238"/>
<path d="M397.92 47.7795H382.873V62.8266H397.92V47.7795Z" fill="#455A64"/>
<path d="M418.595 49.8998C418.595 50.0022 415.078 50.0899 410.75 50.0899C406.421 50.0899 402.904 50.0022 402.904 49.8998C408.131 49.6366 413.368 49.6366 418.595 49.8998Z" fill="#FF725E"/>
<path d="M468.708 55.3105C468.708 55.4201 453.975 55.5079 435.806 55.5079C417.637 55.5079 402.904 55.4201 402.904 55.3105C402.904 55.2008 417.63 55.1204 435.806 55.1204C453.982 55.1204 468.708 55.2008 468.708 55.3105Z" fill="#263238"/>
<path d="M446.569 61.3791C446.569 61.4814 436.889 61.5692 424.949 61.5692C413.01 61.5692 403.329 61.4814 403.329 61.3791C403.329 61.2767 413.01 61.189 424.949 61.189C436.889 61.189 446.569 61.2694 446.569 61.3791Z" fill="#263238"/>
<path d="M460.557 85.2291H387.844C385.994 85.2291 384.22 84.4942 382.912 83.1862C381.604 81.8781 380.869 80.1039 380.869 78.254C380.869 76.404 381.604 74.6299 382.912 73.3218C384.22 72.0137 385.994 71.2788 387.844 71.2788H460.557C462.407 71.2788 464.181 72.0137 465.489 73.3218C466.797 74.6299 467.532 76.404 467.532 78.254C467.532 80.1039 466.797 81.8781 465.489 83.1862C464.181 84.4942 462.407 85.2291 460.557 85.2291Z" fill="#FF725E"/>
<path d="M410.831 79.2335H409.047L408.711 80.0524H407.797L409.508 76.2139H410.385L412.103 80.0524H411.16L410.831 79.2335ZM410.553 78.5535L409.946 77.0912L409.332 78.5535H410.553Z" fill="white"/>
<path d="M415.839 77.6104C415.839 78.4658 415.195 78.9922 414.172 78.9922H413.397V80.0524H412.505V76.2139H414.172C415.195 76.2139 415.839 76.7476 415.839 77.6104ZM414.94 77.6104C414.94 77.1863 414.662 76.9377 414.121 76.9377H413.39V78.2684H414.121C414.662 78.2684 414.94 78.0271 414.94 77.6104Z" fill="white"/>
<path d="M419.802 77.6104C419.802 78.4658 419.166 78.9922 418.135 78.9922H417.36V80.0524H416.476V76.2139H418.135C419.203 76.2139 419.802 76.7476 419.802 77.6104ZM418.903 77.6104C418.903 77.1863 418.632 76.9377 418.084 76.9377H417.353V78.2684H418.084C418.632 78.2684 418.903 78.0271 418.903 77.6104Z" fill="white"/>
<path d="M420.438 76.2139H421.33V79.3286H423.253V80.0597H420.438V76.2139Z" fill="white"/>
<path d="M425.205 78.7074V80.0673H424.321V78.7074L422.858 76.2361H423.802L424.825 77.9397L425.856 76.2361H426.726L425.205 78.7074Z" fill="white"/>
<path d="M432.151 76.2139V80.0524H431.42L429.504 77.72V80.0524H428.627V76.2139H429.358L431.266 78.5462V76.2139H432.151Z" fill="white"/>
<path d="M432.825 78.137C432.8 77.7158 432.902 77.2968 433.118 76.9344C433.334 76.572 433.654 76.2829 434.037 76.1045C434.419 75.9261 434.846 75.8667 435.263 75.9339C435.679 76.0012 436.066 76.192 436.373 76.4817C436.679 76.7713 436.892 77.1465 436.983 77.5585C437.074 77.9705 437.039 78.4003 436.883 78.7922C436.727 79.1842 436.457 79.5202 436.107 79.7566C435.758 79.9931 435.345 80.1191 434.923 80.1184C434.653 80.1344 434.383 80.0949 434.129 80.0025C433.875 79.9101 433.643 79.7667 433.446 79.5811C433.249 79.3955 433.093 79.1716 432.986 78.9233C432.879 78.6749 432.824 78.4073 432.825 78.137ZM436.13 78.137C436.125 77.8994 436.051 77.6683 435.916 77.4728C435.781 77.2773 435.591 77.1261 435.37 77.0382C435.149 76.9502 434.907 76.9294 434.675 76.9784C434.442 77.0274 434.229 77.144 434.063 77.3136C433.896 77.4831 433.784 77.6981 433.739 77.9315C433.694 78.1649 433.719 78.4063 433.811 78.6255C433.903 78.8447 434.058 79.0318 434.255 79.1634C434.453 79.295 434.686 79.3653 434.923 79.3653C435.085 79.3695 435.245 79.3404 435.395 79.2798C435.545 79.2193 435.68 79.1286 435.794 79.0134C435.907 78.8982 435.995 78.7609 436.053 78.6101C436.111 78.4594 436.137 78.2983 436.13 78.137Z" fill="white"/>
<path d="M443.382 76.2139L442.124 80.0524H441.137L440.296 77.4495L439.419 80.0524H438.468L437.211 76.2139H438.132L438.995 78.9118L439.902 76.2139H440.728L441.605 78.9337L442.497 76.2139H443.382Z" fill="white"/>
</svg>
