<svg width="13" height="17" viewBox="0 0 13 17" fill="none" xmlns="http://www.w3.org/2000/svg">
<path d="M5.69102 16.0036C4.05977 13.9973 0.431641 9.13481 0.431641 6.40356C0.431641 3.08981 3.11789 0.403564 6.43164 0.403564C9.74414 0.403564 12.4316 3.08981 12.4316 6.40356C12.4316 9.13481 8.77539 13.9973 7.17227 16.0036C6.78789 16.4817 6.07539 16.4817 5.69102 16.0036ZM6.43164 8.40356C7.53477 8.40356 8.43164 7.50669 8.43164 6.40356C8.43164 5.30044 7.53477 4.40356 6.43164 4.40356C5.32852 4.40356 4.43164 5.30044 4.43164 6.40356C4.43164 7.50669 5.32852 8.40356 6.43164 8.40356Z" fill="#424243"/>
<path d="M5.69102 16.0036C4.05977 13.9973 0.431641 9.13481 0.431641 6.40356C0.431641 3.08981 3.11789 0.403564 6.43164 0.403564C9.74414 0.403564 12.4316 3.08981 12.4316 6.40356C12.4316 9.13481 8.77539 13.9973 7.17227 16.0036C6.78789 16.4817 6.07539 16.4817 5.69102 16.0036ZM6.43164 8.40356C7.53477 8.40356 8.43164 7.50669 8.43164 6.40356C8.43164 5.30044 7.53477 4.40356 6.43164 4.40356C5.32852 4.40356 4.43164 5.30044 4.43164 6.40356C4.43164 7.50669 5.32852 8.40356 6.43164 8.40356Z" fill="black" fill-opacity="0.2"/>
</svg>
